%TF.GenerationSoftware,KiCad,Pcbnew,10.0.5*%
%TF.CreationDate,2026-09-12T10:05:44-04:00*%
%TF.ProjectId,Gears,47656172-732e-46b6-9963-61645f706362,rev?*%
%TF.SameCoordinates,PX5466720PY7b80360*%
%TF.FileFunction,Legend,Top*%
%TF.FilePolarity,Positive*%
%FSLAX46Y46*%
G04 Gerber Fmt 4.6, Leading zero omitted, Abs format (unit mm)*
G04 Created by KiCad (PCBNEW 10.0.5) date 2026-09-12 10:05:44*
%MOMM*%
%LPD*%
G01*
G04 APERTURE LIST*
%ADD10C,0.400000*%
%ADD11C,0.150000*%
%ADD12C,0.120000*%
%ADD13C,0.127000*%
%ADD14C,0.200000*%
G04 APERTURE END LIST*
D10*
X52491728Y17465562D02*
X51539347Y17465562D01*
X51539347Y17465562D02*
X51444109Y16513181D01*
X51444109Y16513181D02*
X51539347Y16608420D01*
X51539347Y16608420D02*
X51729823Y16703658D01*
X51729823Y16703658D02*
X52206014Y16703658D01*
X52206014Y16703658D02*
X52396490Y16608420D01*
X52396490Y16608420D02*
X52491728Y16513181D01*
X52491728Y16513181D02*
X52586966Y16322705D01*
X52586966Y16322705D02*
X52586966Y15846515D01*
X52586966Y15846515D02*
X52491728Y15656039D01*
X52491728Y15656039D02*
X52396490Y15560800D01*
X52396490Y15560800D02*
X52206014Y15465562D01*
X52206014Y15465562D02*
X51729823Y15465562D01*
X51729823Y15465562D02*
X51539347Y15560800D01*
X51539347Y15560800D02*
X51444109Y15656039D01*
X66696490Y75298896D02*
X66696490Y73965562D01*
X66220299Y76060800D02*
X65744109Y74632229D01*
X65744109Y74632229D02*
X66982204Y74632229D01*
X65848871Y17465562D02*
X67086966Y17465562D01*
X67086966Y17465562D02*
X66420299Y16703658D01*
X66420299Y16703658D02*
X66706014Y16703658D01*
X66706014Y16703658D02*
X66896490Y16608420D01*
X66896490Y16608420D02*
X66991728Y16513181D01*
X66991728Y16513181D02*
X67086966Y16322705D01*
X67086966Y16322705D02*
X67086966Y15846515D01*
X67086966Y15846515D02*
X66991728Y15656039D01*
X66991728Y15656039D02*
X66896490Y15560800D01*
X66896490Y15560800D02*
X66706014Y15465562D01*
X66706014Y15465562D02*
X66134585Y15465562D01*
X66134585Y15465562D02*
X65944109Y15560800D01*
X65944109Y15560800D02*
X65848871Y15656039D01*
X81086966Y15465562D02*
X79944109Y15465562D01*
X80515537Y15465562D02*
X80515537Y17465562D01*
X80515537Y17465562D02*
X80325061Y17179848D01*
X80325061Y17179848D02*
X80134585Y16989372D01*
X80134585Y16989372D02*
X79944109Y16894134D01*
X80144109Y75675086D02*
X80239347Y75770324D01*
X80239347Y75770324D02*
X80429823Y75865562D01*
X80429823Y75865562D02*
X80906014Y75865562D01*
X80906014Y75865562D02*
X81096490Y75770324D01*
X81096490Y75770324D02*
X81191728Y75675086D01*
X81191728Y75675086D02*
X81286966Y75484610D01*
X81286966Y75484610D02*
X81286966Y75294134D01*
X81286966Y75294134D02*
X81191728Y75008420D01*
X81191728Y75008420D02*
X80048871Y73865562D01*
X80048871Y73865562D02*
X81286966Y73865562D01*
X94582204Y15265562D02*
X93915537Y16217943D01*
X93439347Y15265562D02*
X93439347Y17265562D01*
X93439347Y17265562D02*
X94201252Y17265562D01*
X94201252Y17265562D02*
X94391728Y17170324D01*
X94391728Y17170324D02*
X94486966Y17075086D01*
X94486966Y17075086D02*
X94582204Y16884610D01*
X94582204Y16884610D02*
X94582204Y16598896D01*
X94582204Y16598896D02*
X94486966Y16408420D01*
X94486966Y16408420D02*
X94391728Y16313181D01*
X94391728Y16313181D02*
X94201252Y16217943D01*
X94201252Y16217943D02*
X93439347Y16217943D01*
D11*
X45354819Y73133334D02*
X44878628Y72800001D01*
X45354819Y72561906D02*
X44354819Y72561906D01*
X44354819Y72561906D02*
X44354819Y72942858D01*
X44354819Y72942858D02*
X44402438Y73038096D01*
X44402438Y73038096D02*
X44450057Y73085715D01*
X44450057Y73085715D02*
X44545295Y73133334D01*
X44545295Y73133334D02*
X44688152Y73133334D01*
X44688152Y73133334D02*
X44783390Y73085715D01*
X44783390Y73085715D02*
X44831009Y73038096D01*
X44831009Y73038096D02*
X44878628Y72942858D01*
X44878628Y72942858D02*
X44878628Y72561906D01*
X44354819Y73990477D02*
X44354819Y73800001D01*
X44354819Y73800001D02*
X44402438Y73704763D01*
X44402438Y73704763D02*
X44450057Y73657144D01*
X44450057Y73657144D02*
X44592914Y73561906D01*
X44592914Y73561906D02*
X44783390Y73514287D01*
X44783390Y73514287D02*
X45164342Y73514287D01*
X45164342Y73514287D02*
X45259580Y73561906D01*
X45259580Y73561906D02*
X45307200Y73609525D01*
X45307200Y73609525D02*
X45354819Y73704763D01*
X45354819Y73704763D02*
X45354819Y73895239D01*
X45354819Y73895239D02*
X45307200Y73990477D01*
X45307200Y73990477D02*
X45259580Y74038096D01*
X45259580Y74038096D02*
X45164342Y74085715D01*
X45164342Y74085715D02*
X44926247Y74085715D01*
X44926247Y74085715D02*
X44831009Y74038096D01*
X44831009Y74038096D02*
X44783390Y73990477D01*
X44783390Y73990477D02*
X44735771Y73895239D01*
X44735771Y73895239D02*
X44735771Y73704763D01*
X44735771Y73704763D02*
X44783390Y73609525D01*
X44783390Y73609525D02*
X44831009Y73561906D01*
X44831009Y73561906D02*
X44926247Y73514287D01*
X48968095Y10545181D02*
X48968095Y9735658D01*
X48968095Y9735658D02*
X49015714Y9640420D01*
X49015714Y9640420D02*
X49063333Y9592800D01*
X49063333Y9592800D02*
X49158571Y9545181D01*
X49158571Y9545181D02*
X49349047Y9545181D01*
X49349047Y9545181D02*
X49444285Y9592800D01*
X49444285Y9592800D02*
X49491904Y9640420D01*
X49491904Y9640420D02*
X49539523Y9735658D01*
X49539523Y9735658D02*
X49539523Y10545181D01*
X49920476Y10545181D02*
X50587142Y10545181D01*
X50587142Y10545181D02*
X50158571Y9545181D01*
X95033333Y13045181D02*
X94700000Y13521372D01*
X94461905Y13045181D02*
X94461905Y14045181D01*
X94461905Y14045181D02*
X94842857Y14045181D01*
X94842857Y14045181D02*
X94938095Y13997562D01*
X94938095Y13997562D02*
X94985714Y13949943D01*
X94985714Y13949943D02*
X95033333Y13854705D01*
X95033333Y13854705D02*
X95033333Y13711848D01*
X95033333Y13711848D02*
X94985714Y13616610D01*
X94985714Y13616610D02*
X94938095Y13568991D01*
X94938095Y13568991D02*
X94842857Y13521372D01*
X94842857Y13521372D02*
X94461905Y13521372D01*
X95414286Y13949943D02*
X95461905Y13997562D01*
X95461905Y13997562D02*
X95557143Y14045181D01*
X95557143Y14045181D02*
X95795238Y14045181D01*
X95795238Y14045181D02*
X95890476Y13997562D01*
X95890476Y13997562D02*
X95938095Y13949943D01*
X95938095Y13949943D02*
X95985714Y13854705D01*
X95985714Y13854705D02*
X95985714Y13759467D01*
X95985714Y13759467D02*
X95938095Y13616610D01*
X95938095Y13616610D02*
X95366667Y13045181D01*
X95366667Y13045181D02*
X95985714Y13045181D01*
X38433333Y83540420D02*
X38385714Y83492800D01*
X38385714Y83492800D02*
X38242857Y83445181D01*
X38242857Y83445181D02*
X38147619Y83445181D01*
X38147619Y83445181D02*
X38004762Y83492800D01*
X38004762Y83492800D02*
X37909524Y83588039D01*
X37909524Y83588039D02*
X37861905Y83683277D01*
X37861905Y83683277D02*
X37814286Y83873753D01*
X37814286Y83873753D02*
X37814286Y84016610D01*
X37814286Y84016610D02*
X37861905Y84207086D01*
X37861905Y84207086D02*
X37909524Y84302324D01*
X37909524Y84302324D02*
X38004762Y84397562D01*
X38004762Y84397562D02*
X38147619Y84445181D01*
X38147619Y84445181D02*
X38242857Y84445181D01*
X38242857Y84445181D02*
X38385714Y84397562D01*
X38385714Y84397562D02*
X38433333Y84349943D01*
X39385714Y83445181D02*
X38814286Y83445181D01*
X39100000Y83445181D02*
X39100000Y84445181D01*
X39100000Y84445181D02*
X39004762Y84302324D01*
X39004762Y84302324D02*
X38909524Y84207086D01*
X38909524Y84207086D02*
X38814286Y84159467D01*
X83983333Y83045181D02*
X83650000Y83521372D01*
X83411905Y83045181D02*
X83411905Y84045181D01*
X83411905Y84045181D02*
X83792857Y84045181D01*
X83792857Y84045181D02*
X83888095Y83997562D01*
X83888095Y83997562D02*
X83935714Y83949943D01*
X83935714Y83949943D02*
X83983333Y83854705D01*
X83983333Y83854705D02*
X83983333Y83711848D01*
X83983333Y83711848D02*
X83935714Y83616610D01*
X83935714Y83616610D02*
X83888095Y83568991D01*
X83888095Y83568991D02*
X83792857Y83521372D01*
X83792857Y83521372D02*
X83411905Y83521372D01*
X84554762Y83616610D02*
X84459524Y83664229D01*
X84459524Y83664229D02*
X84411905Y83711848D01*
X84411905Y83711848D02*
X84364286Y83807086D01*
X84364286Y83807086D02*
X84364286Y83854705D01*
X84364286Y83854705D02*
X84411905Y83949943D01*
X84411905Y83949943D02*
X84459524Y83997562D01*
X84459524Y83997562D02*
X84554762Y84045181D01*
X84554762Y84045181D02*
X84745238Y84045181D01*
X84745238Y84045181D02*
X84840476Y83997562D01*
X84840476Y83997562D02*
X84888095Y83949943D01*
X84888095Y83949943D02*
X84935714Y83854705D01*
X84935714Y83854705D02*
X84935714Y83807086D01*
X84935714Y83807086D02*
X84888095Y83711848D01*
X84888095Y83711848D02*
X84840476Y83664229D01*
X84840476Y83664229D02*
X84745238Y83616610D01*
X84745238Y83616610D02*
X84554762Y83616610D01*
X84554762Y83616610D02*
X84459524Y83568991D01*
X84459524Y83568991D02*
X84411905Y83521372D01*
X84411905Y83521372D02*
X84364286Y83426134D01*
X84364286Y83426134D02*
X84364286Y83235658D01*
X84364286Y83235658D02*
X84411905Y83140420D01*
X84411905Y83140420D02*
X84459524Y83092800D01*
X84459524Y83092800D02*
X84554762Y83045181D01*
X84554762Y83045181D02*
X84745238Y83045181D01*
X84745238Y83045181D02*
X84840476Y83092800D01*
X84840476Y83092800D02*
X84888095Y83140420D01*
X84888095Y83140420D02*
X84935714Y83235658D01*
X84935714Y83235658D02*
X84935714Y83426134D01*
X84935714Y83426134D02*
X84888095Y83521372D01*
X84888095Y83521372D02*
X84840476Y83568991D01*
X84840476Y83568991D02*
X84745238Y83616610D01*
X96590476Y69945181D02*
X96590476Y70945181D01*
X96590476Y70945181D02*
X96923809Y70230896D01*
X96923809Y70230896D02*
X97257142Y70945181D01*
X97257142Y70945181D02*
X97257142Y69945181D01*
X98257142Y69945181D02*
X97685714Y69945181D01*
X97971428Y69945181D02*
X97971428Y70945181D01*
X97971428Y70945181D02*
X97876190Y70802324D01*
X97876190Y70802324D02*
X97780952Y70707086D01*
X97780952Y70707086D02*
X97685714Y70659467D01*
X76238095Y10545181D02*
X76238095Y9735658D01*
X76238095Y9735658D02*
X76285714Y9640420D01*
X76285714Y9640420D02*
X76333333Y9592800D01*
X76333333Y9592800D02*
X76428571Y9545181D01*
X76428571Y9545181D02*
X76619047Y9545181D01*
X76619047Y9545181D02*
X76714285Y9592800D01*
X76714285Y9592800D02*
X76761904Y9640420D01*
X76761904Y9640420D02*
X76809523Y9735658D01*
X76809523Y9735658D02*
X76809523Y10545181D01*
X77190476Y10545181D02*
X77809523Y10545181D01*
X77809523Y10545181D02*
X77476190Y10164229D01*
X77476190Y10164229D02*
X77619047Y10164229D01*
X77619047Y10164229D02*
X77714285Y10116610D01*
X77714285Y10116610D02*
X77761904Y10068991D01*
X77761904Y10068991D02*
X77809523Y9973753D01*
X77809523Y9973753D02*
X77809523Y9735658D01*
X77809523Y9735658D02*
X77761904Y9640420D01*
X77761904Y9640420D02*
X77714285Y9592800D01*
X77714285Y9592800D02*
X77619047Y9545181D01*
X77619047Y9545181D02*
X77333333Y9545181D01*
X77333333Y9545181D02*
X77238095Y9592800D01*
X77238095Y9592800D02*
X77190476Y9640420D01*
X62238095Y10545181D02*
X62238095Y9735658D01*
X62238095Y9735658D02*
X62285714Y9640420D01*
X62285714Y9640420D02*
X62333333Y9592800D01*
X62333333Y9592800D02*
X62428571Y9545181D01*
X62428571Y9545181D02*
X62619047Y9545181D01*
X62619047Y9545181D02*
X62714285Y9592800D01*
X62714285Y9592800D02*
X62761904Y9640420D01*
X62761904Y9640420D02*
X62809523Y9735658D01*
X62809523Y9735658D02*
X62809523Y10545181D01*
X63761904Y10545181D02*
X63285714Y10545181D01*
X63285714Y10545181D02*
X63238095Y10068991D01*
X63238095Y10068991D02*
X63285714Y10116610D01*
X63285714Y10116610D02*
X63380952Y10164229D01*
X63380952Y10164229D02*
X63619047Y10164229D01*
X63619047Y10164229D02*
X63714285Y10116610D01*
X63714285Y10116610D02*
X63761904Y10068991D01*
X63761904Y10068991D02*
X63809523Y9973753D01*
X63809523Y9973753D02*
X63809523Y9735658D01*
X63809523Y9735658D02*
X63761904Y9640420D01*
X63761904Y9640420D02*
X63714285Y9592800D01*
X63714285Y9592800D02*
X63619047Y9545181D01*
X63619047Y9545181D02*
X63380952Y9545181D01*
X63380952Y9545181D02*
X63285714Y9592800D01*
X63285714Y9592800D02*
X63238095Y9640420D01*
X24408333Y65625181D02*
X24075000Y66101372D01*
X23836905Y65625181D02*
X23836905Y66625181D01*
X23836905Y66625181D02*
X24217857Y66625181D01*
X24217857Y66625181D02*
X24313095Y66577562D01*
X24313095Y66577562D02*
X24360714Y66529943D01*
X24360714Y66529943D02*
X24408333Y66434705D01*
X24408333Y66434705D02*
X24408333Y66291848D01*
X24408333Y66291848D02*
X24360714Y66196610D01*
X24360714Y66196610D02*
X24313095Y66148991D01*
X24313095Y66148991D02*
X24217857Y66101372D01*
X24217857Y66101372D02*
X23836905Y66101372D01*
X24741667Y66625181D02*
X25408333Y66625181D01*
X25408333Y66625181D02*
X24979762Y65625181D01*
X24453333Y70625181D02*
X24120000Y71101372D01*
X23881905Y70625181D02*
X23881905Y71625181D01*
X23881905Y71625181D02*
X24262857Y71625181D01*
X24262857Y71625181D02*
X24358095Y71577562D01*
X24358095Y71577562D02*
X24405714Y71529943D01*
X24405714Y71529943D02*
X24453333Y71434705D01*
X24453333Y71434705D02*
X24453333Y71291848D01*
X24453333Y71291848D02*
X24405714Y71196610D01*
X24405714Y71196610D02*
X24358095Y71148991D01*
X24358095Y71148991D02*
X24262857Y71101372D01*
X24262857Y71101372D02*
X23881905Y71101372D01*
X24786667Y71625181D02*
X25405714Y71625181D01*
X25405714Y71625181D02*
X25072381Y71244229D01*
X25072381Y71244229D02*
X25215238Y71244229D01*
X25215238Y71244229D02*
X25310476Y71196610D01*
X25310476Y71196610D02*
X25358095Y71148991D01*
X25358095Y71148991D02*
X25405714Y71053753D01*
X25405714Y71053753D02*
X25405714Y70815658D01*
X25405714Y70815658D02*
X25358095Y70720420D01*
X25358095Y70720420D02*
X25310476Y70672800D01*
X25310476Y70672800D02*
X25215238Y70625181D01*
X25215238Y70625181D02*
X24929524Y70625181D01*
X24929524Y70625181D02*
X24834286Y70672800D01*
X24834286Y70672800D02*
X24786667Y70720420D01*
X77008095Y81485181D02*
X77008095Y80675658D01*
X77008095Y80675658D02*
X77055714Y80580420D01*
X77055714Y80580420D02*
X77103333Y80532800D01*
X77103333Y80532800D02*
X77198571Y80485181D01*
X77198571Y80485181D02*
X77389047Y80485181D01*
X77389047Y80485181D02*
X77484285Y80532800D01*
X77484285Y80532800D02*
X77531904Y80580420D01*
X77531904Y80580420D02*
X77579523Y80675658D01*
X77579523Y80675658D02*
X77579523Y81485181D01*
X78484285Y81151848D02*
X78484285Y80485181D01*
X78246190Y81532800D02*
X78008095Y80818515D01*
X78008095Y80818515D02*
X78627142Y80818515D01*
X24453333Y73245181D02*
X24120000Y73721372D01*
X23881905Y73245181D02*
X23881905Y74245181D01*
X23881905Y74245181D02*
X24262857Y74245181D01*
X24262857Y74245181D02*
X24358095Y74197562D01*
X24358095Y74197562D02*
X24405714Y74149943D01*
X24405714Y74149943D02*
X24453333Y74054705D01*
X24453333Y74054705D02*
X24453333Y73911848D01*
X24453333Y73911848D02*
X24405714Y73816610D01*
X24405714Y73816610D02*
X24358095Y73768991D01*
X24358095Y73768991D02*
X24262857Y73721372D01*
X24262857Y73721372D02*
X23881905Y73721372D01*
X25405714Y73245181D02*
X24834286Y73245181D01*
X25120000Y73245181D02*
X25120000Y74245181D01*
X25120000Y74245181D02*
X25024762Y74102324D01*
X25024762Y74102324D02*
X24929524Y74007086D01*
X24929524Y74007086D02*
X24834286Y73959467D01*
X89654761Y83349943D02*
X89559523Y83397562D01*
X89559523Y83397562D02*
X89464285Y83492800D01*
X89464285Y83492800D02*
X89321428Y83635658D01*
X89321428Y83635658D02*
X89226190Y83683277D01*
X89226190Y83683277D02*
X89130952Y83683277D01*
X89178571Y83445181D02*
X89083333Y83492800D01*
X89083333Y83492800D02*
X88988095Y83588039D01*
X88988095Y83588039D02*
X88940476Y83778515D01*
X88940476Y83778515D02*
X88940476Y84111848D01*
X88940476Y84111848D02*
X88988095Y84302324D01*
X88988095Y84302324D02*
X89083333Y84397562D01*
X89083333Y84397562D02*
X89178571Y84445181D01*
X89178571Y84445181D02*
X89369047Y84445181D01*
X89369047Y84445181D02*
X89464285Y84397562D01*
X89464285Y84397562D02*
X89559523Y84302324D01*
X89559523Y84302324D02*
X89607142Y84111848D01*
X89607142Y84111848D02*
X89607142Y83778515D01*
X89607142Y83778515D02*
X89559523Y83588039D01*
X89559523Y83588039D02*
X89464285Y83492800D01*
X89464285Y83492800D02*
X89369047Y83445181D01*
X89369047Y83445181D02*
X89178571Y83445181D01*
X90559523Y83445181D02*
X89988095Y83445181D01*
X90273809Y83445181D02*
X90273809Y84445181D01*
X90273809Y84445181D02*
X90178571Y84302324D01*
X90178571Y84302324D02*
X90083333Y84207086D01*
X90083333Y84207086D02*
X89988095Y84159467D01*
X62778095Y81485181D02*
X62778095Y80675658D01*
X62778095Y80675658D02*
X62825714Y80580420D01*
X62825714Y80580420D02*
X62873333Y80532800D01*
X62873333Y80532800D02*
X62968571Y80485181D01*
X62968571Y80485181D02*
X63159047Y80485181D01*
X63159047Y80485181D02*
X63254285Y80532800D01*
X63254285Y80532800D02*
X63301904Y80580420D01*
X63301904Y80580420D02*
X63349523Y80675658D01*
X63349523Y80675658D02*
X63349523Y81485181D01*
X64254285Y81485181D02*
X64063809Y81485181D01*
X64063809Y81485181D02*
X63968571Y81437562D01*
X63968571Y81437562D02*
X63920952Y81389943D01*
X63920952Y81389943D02*
X63825714Y81247086D01*
X63825714Y81247086D02*
X63778095Y81056610D01*
X63778095Y81056610D02*
X63778095Y80675658D01*
X63778095Y80675658D02*
X63825714Y80580420D01*
X63825714Y80580420D02*
X63873333Y80532800D01*
X63873333Y80532800D02*
X63968571Y80485181D01*
X63968571Y80485181D02*
X64159047Y80485181D01*
X64159047Y80485181D02*
X64254285Y80532800D01*
X64254285Y80532800D02*
X64301904Y80580420D01*
X64301904Y80580420D02*
X64349523Y80675658D01*
X64349523Y80675658D02*
X64349523Y80913753D01*
X64349523Y80913753D02*
X64301904Y81008991D01*
X64301904Y81008991D02*
X64254285Y81056610D01*
X64254285Y81056610D02*
X64159047Y81104229D01*
X64159047Y81104229D02*
X63968571Y81104229D01*
X63968571Y81104229D02*
X63873333Y81056610D01*
X63873333Y81056610D02*
X63825714Y81008991D01*
X63825714Y81008991D02*
X63778095Y80913753D01*
X96061905Y21532681D02*
X96061905Y22532681D01*
X96061905Y22532681D02*
X96300000Y22532681D01*
X96300000Y22532681D02*
X96442857Y22485062D01*
X96442857Y22485062D02*
X96538095Y22389824D01*
X96538095Y22389824D02*
X96585714Y22294586D01*
X96585714Y22294586D02*
X96633333Y22104110D01*
X96633333Y22104110D02*
X96633333Y21961253D01*
X96633333Y21961253D02*
X96585714Y21770777D01*
X96585714Y21770777D02*
X96538095Y21675539D01*
X96538095Y21675539D02*
X96442857Y21580300D01*
X96442857Y21580300D02*
X96300000Y21532681D01*
X96300000Y21532681D02*
X96061905Y21532681D01*
X97204762Y22104110D02*
X97109524Y22151729D01*
X97109524Y22151729D02*
X97061905Y22199348D01*
X97061905Y22199348D02*
X97014286Y22294586D01*
X97014286Y22294586D02*
X97014286Y22342205D01*
X97014286Y22342205D02*
X97061905Y22437443D01*
X97061905Y22437443D02*
X97109524Y22485062D01*
X97109524Y22485062D02*
X97204762Y22532681D01*
X97204762Y22532681D02*
X97395238Y22532681D01*
X97395238Y22532681D02*
X97490476Y22485062D01*
X97490476Y22485062D02*
X97538095Y22437443D01*
X97538095Y22437443D02*
X97585714Y22342205D01*
X97585714Y22342205D02*
X97585714Y22294586D01*
X97585714Y22294586D02*
X97538095Y22199348D01*
X97538095Y22199348D02*
X97490476Y22151729D01*
X97490476Y22151729D02*
X97395238Y22104110D01*
X97395238Y22104110D02*
X97204762Y22104110D01*
X97204762Y22104110D02*
X97109524Y22056491D01*
X97109524Y22056491D02*
X97061905Y22008872D01*
X97061905Y22008872D02*
X97014286Y21913634D01*
X97014286Y21913634D02*
X97014286Y21723158D01*
X97014286Y21723158D02*
X97061905Y21627920D01*
X97061905Y21627920D02*
X97109524Y21580300D01*
X97109524Y21580300D02*
X97204762Y21532681D01*
X97204762Y21532681D02*
X97395238Y21532681D01*
X97395238Y21532681D02*
X97490476Y21580300D01*
X97490476Y21580300D02*
X97538095Y21627920D01*
X97538095Y21627920D02*
X97585714Y21723158D01*
X97585714Y21723158D02*
X97585714Y21913634D01*
X97585714Y21913634D02*
X97538095Y22008872D01*
X97538095Y22008872D02*
X97490476Y22056491D01*
X97490476Y22056491D02*
X97395238Y22104110D01*
X83933333Y80545181D02*
X83600000Y81021372D01*
X83361905Y80545181D02*
X83361905Y81545181D01*
X83361905Y81545181D02*
X83742857Y81545181D01*
X83742857Y81545181D02*
X83838095Y81497562D01*
X83838095Y81497562D02*
X83885714Y81449943D01*
X83885714Y81449943D02*
X83933333Y81354705D01*
X83933333Y81354705D02*
X83933333Y81211848D01*
X83933333Y81211848D02*
X83885714Y81116610D01*
X83885714Y81116610D02*
X83838095Y81068991D01*
X83838095Y81068991D02*
X83742857Y81021372D01*
X83742857Y81021372D02*
X83361905Y81021372D01*
X84790476Y81211848D02*
X84790476Y80545181D01*
X84552381Y81592800D02*
X84314286Y80878515D01*
X84314286Y80878515D02*
X84933333Y80878515D01*
X96261905Y83445181D02*
X96261905Y84445181D01*
X96261905Y84445181D02*
X96500000Y84445181D01*
X96500000Y84445181D02*
X96642857Y84397562D01*
X96642857Y84397562D02*
X96738095Y84302324D01*
X96738095Y84302324D02*
X96785714Y84207086D01*
X96785714Y84207086D02*
X96833333Y84016610D01*
X96833333Y84016610D02*
X96833333Y83873753D01*
X96833333Y83873753D02*
X96785714Y83683277D01*
X96785714Y83683277D02*
X96738095Y83588039D01*
X96738095Y83588039D02*
X96642857Y83492800D01*
X96642857Y83492800D02*
X96500000Y83445181D01*
X96500000Y83445181D02*
X96261905Y83445181D01*
X97309524Y83445181D02*
X97500000Y83445181D01*
X97500000Y83445181D02*
X97595238Y83492800D01*
X97595238Y83492800D02*
X97642857Y83540420D01*
X97642857Y83540420D02*
X97738095Y83683277D01*
X97738095Y83683277D02*
X97785714Y83873753D01*
X97785714Y83873753D02*
X97785714Y84254705D01*
X97785714Y84254705D02*
X97738095Y84349943D01*
X97738095Y84349943D02*
X97690476Y84397562D01*
X97690476Y84397562D02*
X97595238Y84445181D01*
X97595238Y84445181D02*
X97404762Y84445181D01*
X97404762Y84445181D02*
X97309524Y84397562D01*
X97309524Y84397562D02*
X97261905Y84349943D01*
X97261905Y84349943D02*
X97214286Y84254705D01*
X97214286Y84254705D02*
X97214286Y84016610D01*
X97214286Y84016610D02*
X97261905Y83921372D01*
X97261905Y83921372D02*
X97309524Y83873753D01*
X97309524Y83873753D02*
X97404762Y83826134D01*
X97404762Y83826134D02*
X97595238Y83826134D01*
X97595238Y83826134D02*
X97690476Y83873753D01*
X97690476Y83873753D02*
X97738095Y83921372D01*
X97738095Y83921372D02*
X97785714Y84016610D01*
X24453333Y68125181D02*
X24120000Y68601372D01*
X23881905Y68125181D02*
X23881905Y69125181D01*
X23881905Y69125181D02*
X24262857Y69125181D01*
X24262857Y69125181D02*
X24358095Y69077562D01*
X24358095Y69077562D02*
X24405714Y69029943D01*
X24405714Y69029943D02*
X24453333Y68934705D01*
X24453333Y68934705D02*
X24453333Y68791848D01*
X24453333Y68791848D02*
X24405714Y68696610D01*
X24405714Y68696610D02*
X24358095Y68648991D01*
X24358095Y68648991D02*
X24262857Y68601372D01*
X24262857Y68601372D02*
X23881905Y68601372D01*
X25358095Y69125181D02*
X24881905Y69125181D01*
X24881905Y69125181D02*
X24834286Y68648991D01*
X24834286Y68648991D02*
X24881905Y68696610D01*
X24881905Y68696610D02*
X24977143Y68744229D01*
X24977143Y68744229D02*
X25215238Y68744229D01*
X25215238Y68744229D02*
X25310476Y68696610D01*
X25310476Y68696610D02*
X25358095Y68648991D01*
X25358095Y68648991D02*
X25405714Y68553753D01*
X25405714Y68553753D02*
X25405714Y68315658D01*
X25405714Y68315658D02*
X25358095Y68220420D01*
X25358095Y68220420D02*
X25310476Y68172800D01*
X25310476Y68172800D02*
X25215238Y68125181D01*
X25215238Y68125181D02*
X24977143Y68125181D01*
X24977143Y68125181D02*
X24881905Y68172800D01*
X24881905Y68172800D02*
X24834286Y68220420D01*
X90738095Y10545181D02*
X90738095Y9735658D01*
X90738095Y9735658D02*
X90785714Y9640420D01*
X90785714Y9640420D02*
X90833333Y9592800D01*
X90833333Y9592800D02*
X90928571Y9545181D01*
X90928571Y9545181D02*
X91119047Y9545181D01*
X91119047Y9545181D02*
X91214285Y9592800D01*
X91214285Y9592800D02*
X91261904Y9640420D01*
X91261904Y9640420D02*
X91309523Y9735658D01*
X91309523Y9735658D02*
X91309523Y10545181D01*
X91738095Y10449943D02*
X91785714Y10497562D01*
X91785714Y10497562D02*
X91880952Y10545181D01*
X91880952Y10545181D02*
X92119047Y10545181D01*
X92119047Y10545181D02*
X92214285Y10497562D01*
X92214285Y10497562D02*
X92261904Y10449943D01*
X92261904Y10449943D02*
X92309523Y10354705D01*
X92309523Y10354705D02*
X92309523Y10259467D01*
X92309523Y10259467D02*
X92261904Y10116610D01*
X92261904Y10116610D02*
X91690476Y9545181D01*
X91690476Y9545181D02*
X92309523Y9545181D01*
%TO.C,R6*%
D12*
X43990000Y72572936D02*
X43990000Y74027064D01*
X45810000Y72572936D02*
X45810000Y74027064D01*
%TO.C,U7*%
X44125000Y10600000D02*
X44125000Y9040000D01*
X44630000Y11110000D02*
X44125000Y10603950D01*
X47850000Y11110000D02*
X44630000Y11110000D01*
X48335000Y9040000D02*
X48335000Y10630000D01*
%TO.C,R2*%
X95927064Y14410000D02*
X94472936Y14410000D01*
X95927064Y12590000D02*
X94472936Y12590000D01*
%TO.C,C1*%
X39311252Y84810000D02*
X37888748Y84810000D01*
X39311252Y82990000D02*
X37888748Y82990000D01*
%TO.C,R8*%
X83422936Y84410000D02*
X84877064Y84410000D01*
X83422936Y82590000D02*
X84877064Y82590000D01*
%TO.C,M1*%
D13*
X94000000Y65770000D02*
X94000000Y67075000D01*
X94000000Y65770000D02*
X96000000Y65770000D01*
X94000000Y64775000D02*
X94000000Y65770000D01*
X96000000Y65770000D02*
X96000000Y67075000D01*
X96000000Y64775000D02*
X96000000Y65770000D01*
D14*
X93500000Y63500000D02*
G75*
G02*
X93300000Y63500000I-100000J0D01*
G01*
X93300000Y63500000D02*
G75*
G02*
X93500000Y63500000I100000J0D01*
G01*
D13*
X98500000Y70470000D02*
G75*
G02*
X91500000Y70470000I-3500000J0D01*
G01*
X91500000Y70470000D02*
G75*
G02*
X98500000Y70470000I3500000J0D01*
G01*
%TO.C,U3*%
D12*
X71625000Y10600000D02*
X71625000Y9040000D01*
X72130000Y11110000D02*
X71625000Y10603950D01*
X75350000Y11110000D02*
X72130000Y11110000D01*
X75835000Y9040000D02*
X75835000Y10630000D01*
%TO.C,U5*%
X57625000Y10600000D02*
X57625000Y9040000D01*
X58130000Y11110000D02*
X57625000Y10603950D01*
X61350000Y11110000D02*
X58130000Y11110000D01*
X61835000Y9040000D02*
X61835000Y10630000D01*
%TO.C,R7*%
X25347064Y67110000D02*
X23892936Y67110000D01*
X25347064Y65290000D02*
X23892936Y65290000D01*
%TO.C,R3*%
X25347064Y72110000D02*
X23892936Y72110000D01*
X25347064Y70290000D02*
X23892936Y70290000D01*
%TO.C,U4*%
X72165000Y81960000D02*
X72165000Y80370000D01*
X72650000Y79890000D02*
X75870000Y79890000D01*
X75870000Y79890000D02*
X76375000Y80396050D01*
X76375000Y80400000D02*
X76375000Y81960000D01*
%TO.C,R1*%
X23892936Y74610000D02*
X25347064Y74610000D01*
X23892936Y72790000D02*
X25347064Y72790000D01*
%TO.C,Q1*%
X88990000Y83060000D02*
X90510000Y83060000D01*
X88990000Y83010000D02*
X88990000Y83060000D01*
X88990000Y81110000D02*
X88990000Y81890000D01*
X88990000Y79940000D02*
X88990000Y79990000D01*
X90510000Y83060000D02*
X90510000Y82060000D01*
X90510000Y80940000D02*
X90510000Y79940000D01*
X90510000Y79940000D02*
X88990000Y79940000D01*
X88450000Y81880000D02*
X88690000Y81550000D01*
X88210000Y81550000D01*
X88450000Y81880000D01*
G36*
X88690000Y81550000D02*
G01*
X88210000Y81550000D01*
X88450000Y81880000D01*
X88690000Y81550000D01*
G37*
%TO.C,U6*%
X58165000Y81960000D02*
X58165000Y80370000D01*
X58650000Y79890000D02*
X61870000Y79890000D01*
X61870000Y79890000D02*
X62375000Y80396050D01*
X62375000Y80400000D02*
X62375000Y81960000D01*
%TO.C,D8*%
X95665000Y21260000D02*
X95665000Y17200000D01*
X97935000Y21260000D02*
X95665000Y21260000D01*
X97935000Y17200000D02*
X97935000Y21260000D01*
%TO.C,R4*%
X83422936Y81910000D02*
X84877064Y81910000D01*
X83422936Y80090000D02*
X84877064Y80090000D01*
%TO.C,D9*%
X92990000Y83150000D02*
X92990000Y79850000D01*
X92990000Y83150000D02*
X98500000Y83150000D01*
X92990000Y79850000D02*
X98500000Y79850000D01*
%TO.C,R5*%
X25347064Y69610000D02*
X23892936Y69610000D01*
X25347064Y67790000D02*
X23892936Y67790000D01*
%TO.C,U2*%
X86125000Y10600000D02*
X86125000Y9040000D01*
X86630000Y11110000D02*
X86125000Y10603950D01*
X89850000Y11110000D02*
X86630000Y11110000D01*
X90335000Y9040000D02*
X90335000Y10630000D01*
%TD*%
M02*
