M48
; DRILL file KiCad 10.0.5 date 2026-09-12T10:05:29
; FORMAT={-:-/ absolute / metric / decimal}
; #@! TF.CreationDate,2026-09-12T10:05:29-04:00
; #@! TF.GenerationSoftware,Kicad,Pcbnew,10.0.5
; #@! TF.FileFunction,MixedPlating,1,2
FMAT,2
METRIC
; #@! TA.AperFunction,Plated,PTH,ComponentDrill
T1C0.750
; #@! TA.AperFunction,Plated,PTH,ComponentDrill
T2C0.840
%
G90
G05
T1
X44.96Y10.0
X46.23Y10.0
X47.5Y10.0
X58.46Y10.0
X59.0Y81.0
X59.73Y10.0
X60.27Y81.0
X61.0Y10.0
X61.54Y81.0
X72.46Y10.0
X73.0Y81.0
X73.73Y10.0
X74.27Y81.0
X75.0Y10.0
X75.54Y81.0
X86.96Y10.0
X88.23Y10.0
X89.5Y10.0
T2
X30.11Y83.9
X30.11Y81.36
X30.11Y78.82
X30.11Y76.28
X30.11Y73.74
X30.11Y71.2
X30.11Y68.66
X30.11Y66.12
X47.89Y83.9
X47.89Y81.36
X47.89Y78.82
X47.89Y76.28
X47.89Y73.74
X47.89Y71.2
X47.89Y68.66
X47.89Y66.12
M30
