%TF.GenerationSoftware,KiCad,Pcbnew,10.0.5*%
%TF.CreationDate,2026-09-12T10:05:44-04:00*%
%TF.ProjectId,Gears,47656172-732e-46b6-9963-61645f706362,rev?*%
%TF.SameCoordinates,PX5466720PY7b80360*%
%TF.FileFunction,Profile,NP*%
%FSLAX46Y46*%
G04 Gerber Fmt 4.6, Leading zero omitted, Abs format (unit mm)*
G04 Created by KiCad (PCBNEW 10.0.5) date 2026-09-12 10:05:44*
%MOMM*%
%LPD*%
G01*
G04 APERTURE LIST*
%TA.AperFunction,Profile*%
%ADD10C,0.100000*%
%TD*%
G04 APERTURE END LIST*
D10*
X11000000Y79500000D02*
X14274067Y79500000D01*
X15050000Y70450000D02*
G75*
G02*
X6950000Y70450000I-4050000J0D01*
G01*
X6950000Y70450000D02*
G75*
G02*
X15050000Y70450000I4050000J0D01*
G01*
X11000000Y61400000D02*
G75*
G02*
X11000000Y79500000I0J9050000D01*
G01*
X11000000Y30500000D02*
X14000000Y30500000D01*
X15050000Y21450000D02*
G75*
G02*
X6950000Y21450000I-4050000J0D01*
G01*
X6950000Y21450000D02*
G75*
G02*
X15050000Y21450000I4050000J0D01*
G01*
X11000000Y12400000D02*
G75*
G02*
X11000000Y30500000I0J9050000D01*
G01*
X14000000Y61400000D02*
X11000000Y61400000D01*
X14000000Y61400000D02*
G75*
G02*
X19000000Y56400000I0J-5000000D01*
G01*
X14274067Y12400000D02*
X11000000Y12400000D01*
X14274067Y12400000D02*
G75*
G02*
X19159827Y8462490I33J-4999900D01*
G01*
X19000000Y35500000D02*
G75*
G02*
X14000000Y30500000I-5000000J0D01*
G01*
X19000000Y35500000D02*
X19000000Y56400000D01*
X19159873Y83437500D02*
G75*
G02*
X14274067Y79499972I-4885673J1062300D01*
G01*
X19159873Y83437500D02*
G75*
G02*
X26000000Y88950000I6840127J-1487500D01*
G01*
X26000000Y88950000D02*
X95000000Y88950000D01*
X26000000Y2950000D02*
G75*
G02*
X19159873Y8462500I0J7000000D01*
G01*
X41500000Y47450000D02*
G75*
G02*
X46500000Y52450000I5000000J0D01*
G01*
X41500000Y21450000D02*
X41500000Y47450000D01*
X46500000Y52450000D02*
X49500000Y52450000D01*
X49500000Y52450000D02*
X55500000Y62842305D01*
X51500000Y34950000D02*
X55500000Y38950000D01*
X51500000Y21450000D02*
G75*
G02*
X41500000Y21450000I-5000000J0D01*
G01*
X51500000Y21450000D02*
X51500000Y34950000D01*
X55500000Y70450000D02*
X55500000Y62842305D01*
X55500000Y70450000D02*
G75*
G02*
X65500000Y70450000I5000000J0D01*
G01*
X55500000Y38950000D02*
X55500000Y21450000D01*
X65500000Y51950000D02*
X65500000Y70450000D01*
X65500000Y34950000D02*
X69500000Y38950000D01*
X65500000Y21450000D02*
G75*
G02*
X55500000Y21450000I-5000000J0D01*
G01*
X65500000Y21450000D02*
X65500000Y34950000D01*
X69500000Y70450000D02*
X69500000Y55950000D01*
X69500000Y70450000D02*
G75*
G02*
X79500000Y70450000I5000000J0D01*
G01*
X69500000Y55950000D02*
X65500000Y51950000D01*
X69500000Y38950000D02*
X69500000Y21450000D01*
X79500000Y62842305D02*
X79500000Y70450000D01*
X79500000Y34950000D02*
X83500000Y38950000D01*
X79500000Y21450000D02*
G75*
G02*
X69500000Y21450000I-5000000J0D01*
G01*
X79500000Y21450000D02*
X79500000Y34950000D01*
X83500000Y38950000D02*
X83500000Y21450000D01*
X85500000Y52450000D02*
X79500000Y62842305D01*
X88500000Y52450000D02*
X85500000Y52450000D01*
X88500000Y52450000D02*
G75*
G02*
X93500000Y47450000I0J-5000000D01*
G01*
X93500000Y21450000D02*
G75*
G02*
X83500000Y21450000I-5000000J0D01*
G01*
X93500000Y21450000D02*
X93500000Y47450000D01*
X95000000Y88950000D02*
G75*
G02*
X101840127Y83437500I0J-7000000D01*
G01*
X95000000Y2950000D02*
X26000000Y2950000D01*
X101840127Y8462500D02*
G75*
G02*
X95000000Y2950000I-6840127J1487500D01*
G01*
X101840127Y8462500D02*
G75*
G02*
X106725933Y12399930I4885573J-1062300D01*
G01*
X102000000Y56400000D02*
X102000000Y35500000D01*
X102000000Y56400000D02*
G75*
G02*
X107000000Y61400000I5000000J0D01*
G01*
X106725933Y79500000D02*
G75*
G02*
X101840096Y83437493I-33J5000000D01*
G01*
X106725933Y79500000D02*
X110000000Y79500000D01*
X107000000Y30500000D02*
G75*
G02*
X102000000Y35500000I0J5000000D01*
G01*
X107000000Y30500000D02*
X110000000Y30500000D01*
X110000000Y79500000D02*
G75*
G02*
X110000000Y61400000I0J-9050000D01*
G01*
X114050000Y70450000D02*
G75*
G02*
X105950000Y70450000I-4050000J0D01*
G01*
X105950000Y70450000D02*
G75*
G02*
X114050000Y70450000I4050000J0D01*
G01*
X110000000Y61400000D02*
X107000000Y61400000D01*
X110000000Y30500000D02*
G75*
G02*
X110000000Y12400000I0J-9050000D01*
G01*
X114050000Y21450000D02*
G75*
G02*
X105950000Y21450000I-4050000J0D01*
G01*
X105950000Y21450000D02*
G75*
G02*
X114050000Y21450000I4050000J0D01*
G01*
X110000000Y12400000D02*
X106725933Y12400000D01*
M02*
