M48
; DRILL file KiCad 10.0.1 date 2026-05-24T14:52:14
; FORMAT={-:-/ absolute / metric / decimal}
; #@! TF.CreationDate,2026-05-24T14:52:14-04:00
; #@! TF.GenerationSoftware,Kicad,Pcbnew,10.0.1
; #@! TF.FileFunction,MixedPlating,1,2
FMAT,2
METRIC
; #@! TA.AperFunction,Plated,PTH,ComponentDrill
T1C0.800
%
G90
G05
T1
X3.57Y29.045
X4.8Y44.035
X4.8Y41.535
X4.8Y39.035
X4.8Y36.535
X6.07Y29.045
X7.94Y18.997
X7.94Y13.17
X7.94Y7.567
X7.94Y1.852
X8.57Y29.045
X11.07Y29.045
X11.785Y36.305
X12.94Y18.997
X12.94Y13.17
X12.94Y7.567
X12.94Y1.852
X13.57Y29.045
X14.325Y36.305
X16.865Y36.305
X21.31Y39.84
X21.31Y37.3
X21.31Y34.76
X23.89Y30.095
X26.39Y39.84
X26.39Y37.3
X26.39Y34.76
X26.39Y30.095
X28.89Y30.095
X29.19Y18.997
X29.19Y13.17
X29.19Y7.567
X29.19Y1.852
X31.39Y30.095
X31.83Y39.84
X31.83Y37.3
X31.83Y34.76
X32.94Y18.997
X32.94Y13.17
X32.94Y7.567
X32.94Y1.852
M30
