%TF.GenerationSoftware,KiCad,Pcbnew,10.0.1*%
%TF.CreationDate,2026-04-18T11:53:44-04:00*%
%TF.ProjectId,Board,426f6172-642e-46b6-9963-61645f706362,rev?*%
%TF.SameCoordinates,PX7200920PY4a61040*%
%TF.FileFunction,Copper,L1,Top*%
%TF.FilePolarity,Positive*%
%FSLAX46Y46*%
G04 Gerber Fmt 4.6, Leading zero omitted, Abs format (unit mm)*
G04 Created by KiCad (PCBNEW 10.0.1) date 2026-04-18 11:53:44*
%MOMM*%
%LPD*%
G01*
G04 APERTURE LIST*
%TA.AperFunction,ComponentPad*%
%ADD10C,2.000000*%
%TD*%
%TA.AperFunction,SMDPad,CuDef*%
%ADD11R,4.999998X0.999998*%
%TD*%
%TA.AperFunction,SMDPad,CuDef*%
%ADD12R,4.999996X0.999996*%
%TD*%
%TA.AperFunction,SMDPad,CuDef*%
%ADD13R,5.000000X0.999996*%
%TD*%
%TA.AperFunction,Conductor*%
%ADD14C,0.400000*%
%TD*%
G04 APERTURE END LIST*
D10*
%TO.P,SW1,A,A_A*%
%TO.N,Net-(J1-Pin_2)*%
X17344000Y9840000D03*
%TO.P,SW1,B,B_B*%
%TO.N,Net-(J1-Pin_4)*%
X17344000Y4840000D03*
%TO.P,SW1,C,C_C*%
%TO.N,Net-(J1-Pin_3)*%
X17344000Y7340000D03*
%TO.P,SW1,S1,S1_S1*%
%TO.N,Net-(J1-Pin_1)*%
X2844000Y9840000D03*
%TO.P,SW1,S2,S2_S2*%
%TO.N,Net-(J1-Pin_3)*%
X2844000Y4840000D03*
%TD*%
D11*
%TO.P,J1,3,Pin_3_3*%
%TO.N,Net-(J1-Pin_3)*%
X9745999Y6110001D03*
D12*
%TO.P,J1,1,Pin_1_1*%
%TO.N,Net-(J1-Pin_1)*%
X9745998Y11189998D03*
D11*
%TO.P,J1,2,Pin_2_2*%
%TO.N,Net-(J1-Pin_2)*%
X9746001Y8649999D03*
D13*
%TO.P,J1,4,Pin_4_4*%
%TO.N,Net-(J1-Pin_4)*%
X9746000Y3570002D03*
%TD*%
%TO.N,Net-(J1-Pin_4)*%
D14*
X17344000Y4840000D02*
X16094000Y3590000D01*
X16094000Y3590000D02*
X9746000Y3590000D01*
%TO.N,Net-(J1-Pin_3)*%
X2844000Y4840000D02*
X4114001Y6110001D01*
X4114001Y6110001D02*
X9745999Y6110001D01*
X17344000Y7340000D02*
X16114001Y6110001D01*
X16114001Y6110001D02*
X9745999Y6110001D01*
%TO.N,Net-(J1-Pin_2)*%
X17344000Y9840000D02*
X16154000Y8650000D01*
X16154000Y8650000D02*
X9746001Y8649999D01*
%TO.N,Net-(J1-Pin_1)*%
X2844000Y9840000D02*
X4094000Y11090000D01*
X4094000Y11090000D02*
X9745998Y11090000D01*
%TD*%
%TA.AperFunction,Conductor*%
%TO.N,Net-(J1-Pin_4)*%
G36*
X16400334Y5126333D02*
G01*
X17339813Y4846584D01*
X17343849Y4844453D01*
X17346531Y4842275D01*
X17350368Y4836532D01*
X17630320Y3896376D01*
X17630745Y3891830D01*
X17630557Y3890017D01*
X17626349Y3882186D01*
X17625011Y3881086D01*
X17621051Y3878951D01*
X16235442Y3448588D01*
X16235408Y3448576D01*
X16097218Y3391333D01*
X16095027Y3390668D01*
X16092802Y3390225D01*
X16090521Y3390000D01*
X15880609Y3390000D01*
X15876132Y3390891D01*
X15874483Y3391574D01*
X15868154Y3397905D01*
X15867471Y3399555D01*
X15866582Y3404028D01*
X15866582Y3765547D01*
X15867471Y3770020D01*
X15867508Y3770112D01*
X15868127Y3771605D01*
X15874456Y3777938D01*
X15882381Y3778311D01*
X15883186Y3778063D01*
X15886321Y3776555D01*
X15952579Y3731421D01*
X16382940Y5117024D01*
X16385112Y5121027D01*
X16386282Y5122433D01*
X16394138Y5126596D01*
X16395864Y5126764D01*
X16400334Y5126333D01*
G37*
%TD.AperFunction*%
%TD*%
%TA.AperFunction,Conductor*%
%TO.N,Net-(J1-Pin_3)*%
G36*
X4309706Y6306574D02*
G01*
X4313133Y6298301D01*
X4313133Y5938549D01*
X4309706Y5930276D01*
X4301433Y5926849D01*
X4293160Y5930276D01*
X4293098Y5930338D01*
X4255422Y5968581D01*
X4255421Y5968581D01*
X3804436Y4560630D01*
X3798649Y4553796D01*
X3789955Y4552986D01*
X2845955Y4834082D01*
X2839004Y4839727D01*
X2838081Y4841956D01*
X2556985Y5785958D01*
X2557908Y5794863D01*
X2564626Y5800436D01*
X3724448Y6171943D01*
X3972562Y6251416D01*
X3972565Y6251418D01*
X3972580Y6251422D01*
X4111850Y6309110D01*
X4116327Y6310001D01*
X4301433Y6310001D01*
X4309706Y6306574D01*
G37*
%TD.AperFunction*%
%TD*%
%TA.AperFunction,Conductor*%
%TO.N,Net-(J1-Pin_3)*%
G36*
X16400461Y7626295D02*
G01*
X17339813Y7346584D01*
X17343849Y7344453D01*
X17346531Y7342275D01*
X17350368Y7336532D01*
X17630289Y6396478D01*
X17630714Y6391932D01*
X17630529Y6390148D01*
X17626277Y6382281D01*
X17624906Y6381165D01*
X17620888Y6379034D01*
X17079019Y6216151D01*
X17078255Y6215949D01*
X17077484Y6215773D01*
X17076710Y6215624D01*
X17016061Y6206019D01*
X17016028Y6206011D01*
X16806390Y6137895D01*
X16790114Y6129602D01*
X16789158Y6129168D01*
X16788183Y6128777D01*
X16787196Y6128431D01*
X16255552Y5968620D01*
X16255459Y5968594D01*
X16255397Y5968573D01*
X16117216Y5911334D01*
X16115027Y5910669D01*
X16112810Y5910227D01*
X16110522Y5910001D01*
X15872324Y5910001D01*
X15867847Y5910892D01*
X15866198Y5911575D01*
X15859869Y5917906D01*
X15859186Y5919556D01*
X15858297Y5924029D01*
X15858297Y6288530D01*
X15859186Y6293003D01*
X15859220Y6293088D01*
X15859868Y6294651D01*
X15866193Y6300982D01*
X15866489Y6301105D01*
X15873686Y6301667D01*
X15873968Y6301599D01*
X15876569Y6300636D01*
X15972580Y6251422D01*
X16383032Y7616888D01*
X16385169Y7620911D01*
X16386306Y7622304D01*
X16394173Y7626539D01*
X16395940Y7626720D01*
X16400461Y7626295D01*
G37*
%TD.AperFunction*%
%TD*%
%TA.AperFunction,Conductor*%
%TO.N,Net-(J1-Pin_2)*%
G36*
X16398412Y10126905D02*
G01*
X16401877Y10125873D01*
X17342044Y9845919D01*
X17348995Y9840274D01*
X17349918Y9838045D01*
X17630889Y8894463D01*
X17629966Y8885556D01*
X17623015Y8879911D01*
X17622828Y8879856D01*
X16295413Y8508577D01*
X16295409Y8508576D01*
X16156151Y8450891D01*
X16151674Y8450000D01*
X15853430Y8450000D01*
X15845157Y8453427D01*
X15841730Y8461700D01*
X15841729Y8833619D01*
X15845156Y8841892D01*
X15853429Y8845319D01*
X15857220Y8844688D01*
X16012579Y8791421D01*
X16383856Y10118831D01*
X16389384Y10125873D01*
X16398275Y10126945D01*
X16398412Y10126905D01*
G37*
%TD.AperFunction*%
%TD*%
%TA.AperFunction,Conductor*%
%TO.N,Net-(J1-Pin_1)*%
G36*
X4317991Y11286573D02*
G01*
X4321418Y11278300D01*
X4321418Y10912127D01*
X4317991Y10903854D01*
X4309718Y10900427D01*
X4303131Y10902457D01*
X4279969Y10918234D01*
X4235421Y10948579D01*
X4235420Y10948579D01*
X3804369Y9560758D01*
X3798643Y9553873D01*
X3789857Y9553016D01*
X3554010Y9623244D01*
X2845955Y9834082D01*
X2839004Y9839727D01*
X2838081Y9841956D01*
X2557014Y10785861D01*
X2557937Y10794765D01*
X2564756Y10800370D01*
X3952579Y11231421D01*
X4091849Y11289109D01*
X4096326Y11290000D01*
X4309718Y11290000D01*
X4317991Y11286573D01*
G37*
%TD.AperFunction*%
%TD*%
M02*
