%TF.GenerationSoftware,KiCad,Pcbnew,10.0.5*%
%TF.CreationDate,2026-09-20T21:28:13-04:00*%
%TF.ProjectId,K-Line,4b2d4c69-6e65-42e6-9b69-6361645f7063,rev?*%
%TF.SameCoordinates,PX5e69ec0PY5742de0*%
%TF.FileFunction,Legend,Top*%
%TF.FilePolarity,Positive*%
%FSLAX46Y46*%
G04 Gerber Fmt 4.6, Leading zero omitted, Abs format (unit mm)*
G04 Created by KiCad (PCBNEW 10.0.5) date 2026-09-20 21:28:13*
%MOMM*%
%LPD*%
G01*
G04 APERTURE LIST*
%ADD10C,0.080000*%
%ADD11C,0.120000*%
%TA.AperFunction,Profile*%
%ADD12C,0.050000*%
%TD*%
%ADD13C,0.050000*%
G04 APERTURE END LIST*
D10*
X3869642Y19921208D02*
X3812499Y19959303D01*
X3812499Y19959303D02*
X3783928Y19997399D01*
X3783928Y19997399D02*
X3755356Y20073589D01*
X3755356Y20073589D02*
X3755356Y20111684D01*
X3755356Y20111684D02*
X3783928Y20187875D01*
X3783928Y20187875D02*
X3812499Y20225970D01*
X3812499Y20225970D02*
X3869642Y20264065D01*
X3869642Y20264065D02*
X3983928Y20264065D01*
X3983928Y20264065D02*
X4041071Y20225970D01*
X4041071Y20225970D02*
X4069642Y20187875D01*
X4069642Y20187875D02*
X4098213Y20111684D01*
X4098213Y20111684D02*
X4098213Y20073589D01*
X4098213Y20073589D02*
X4069642Y19997399D01*
X4069642Y19997399D02*
X4041071Y19959303D01*
X4041071Y19959303D02*
X3983928Y19921208D01*
X3983928Y19921208D02*
X3869642Y19921208D01*
X3869642Y19921208D02*
X3812499Y19883113D01*
X3812499Y19883113D02*
X3783928Y19845018D01*
X3783928Y19845018D02*
X3755356Y19768827D01*
X3755356Y19768827D02*
X3755356Y19616446D01*
X3755356Y19616446D02*
X3783928Y19540256D01*
X3783928Y19540256D02*
X3812499Y19502160D01*
X3812499Y19502160D02*
X3869642Y19464065D01*
X3869642Y19464065D02*
X3983928Y19464065D01*
X3983928Y19464065D02*
X4041071Y19502160D01*
X4041071Y19502160D02*
X4069642Y19540256D01*
X4069642Y19540256D02*
X4098213Y19616446D01*
X4098213Y19616446D02*
X4098213Y19768827D01*
X4098213Y19768827D02*
X4069642Y19845018D01*
X4069642Y19845018D02*
X4041071Y19883113D01*
X4041071Y19883113D02*
X3983928Y19921208D01*
X4326785Y20187875D02*
X4355357Y20225970D01*
X4355357Y20225970D02*
X4412500Y20264065D01*
X4412500Y20264065D02*
X4555357Y20264065D01*
X4555357Y20264065D02*
X4612500Y20225970D01*
X4612500Y20225970D02*
X4641071Y20187875D01*
X4641071Y20187875D02*
X4669642Y20111684D01*
X4669642Y20111684D02*
X4669642Y20035494D01*
X4669642Y20035494D02*
X4641071Y19921208D01*
X4641071Y19921208D02*
X4298214Y19464065D01*
X4298214Y19464065D02*
X4669642Y19464065D01*
X5269643Y19464065D02*
X5069643Y19845018D01*
X4926786Y19464065D02*
X4926786Y20264065D01*
X4926786Y20264065D02*
X5155357Y20264065D01*
X5155357Y20264065D02*
X5212500Y20225970D01*
X5212500Y20225970D02*
X5241071Y20187875D01*
X5241071Y20187875D02*
X5269643Y20111684D01*
X5269643Y20111684D02*
X5269643Y19997399D01*
X5269643Y19997399D02*
X5241071Y19921208D01*
X5241071Y19921208D02*
X5212500Y19883113D01*
X5212500Y19883113D02*
X5155357Y19845018D01*
X5155357Y19845018D02*
X4926786Y19845018D01*
X4412500Y17634065D02*
X4212500Y18015018D01*
X4069643Y17634065D02*
X4069643Y18434065D01*
X4069643Y18434065D02*
X4298214Y18434065D01*
X4298214Y18434065D02*
X4355357Y18395970D01*
X4355357Y18395970D02*
X4383928Y18357875D01*
X4383928Y18357875D02*
X4412500Y18281684D01*
X4412500Y18281684D02*
X4412500Y18167399D01*
X4412500Y18167399D02*
X4383928Y18091208D01*
X4383928Y18091208D02*
X4355357Y18053113D01*
X4355357Y18053113D02*
X4298214Y18015018D01*
X4298214Y18015018D02*
X4069643Y18015018D01*
X4955357Y18434065D02*
X4669643Y18434065D01*
X4669643Y18434065D02*
X4641071Y18053113D01*
X4641071Y18053113D02*
X4669643Y18091208D01*
X4669643Y18091208D02*
X4726786Y18129303D01*
X4726786Y18129303D02*
X4869643Y18129303D01*
X4869643Y18129303D02*
X4926786Y18091208D01*
X4926786Y18091208D02*
X4955357Y18053113D01*
X4955357Y18053113D02*
X4983928Y17976922D01*
X4983928Y17976922D02*
X4983928Y17786446D01*
X4983928Y17786446D02*
X4955357Y17710256D01*
X4955357Y17710256D02*
X4926786Y17672160D01*
X4926786Y17672160D02*
X4869643Y17634065D01*
X4869643Y17634065D02*
X4726786Y17634065D01*
X4726786Y17634065D02*
X4669643Y17672160D01*
X4669643Y17672160D02*
X4641071Y17710256D01*
X52892857Y3134065D02*
X52892857Y3934065D01*
X52892857Y3934065D02*
X53035714Y3934065D01*
X53035714Y3934065D02*
X53121428Y3895970D01*
X53121428Y3895970D02*
X53178571Y3819780D01*
X53178571Y3819780D02*
X53207142Y3743589D01*
X53207142Y3743589D02*
X53235714Y3591208D01*
X53235714Y3591208D02*
X53235714Y3476922D01*
X53235714Y3476922D02*
X53207142Y3324541D01*
X53207142Y3324541D02*
X53178571Y3248351D01*
X53178571Y3248351D02*
X53121428Y3172160D01*
X53121428Y3172160D02*
X53035714Y3134065D01*
X53035714Y3134065D02*
X52892857Y3134065D01*
X50057143Y3134065D02*
X50057143Y3934065D01*
X50057143Y3934065D02*
X50200000Y3934065D01*
X50200000Y3934065D02*
X50285714Y3895970D01*
X50285714Y3895970D02*
X50342857Y3819780D01*
X50342857Y3819780D02*
X50371428Y3743589D01*
X50371428Y3743589D02*
X50400000Y3591208D01*
X50400000Y3591208D02*
X50400000Y3476922D01*
X50400000Y3476922D02*
X50371428Y3324541D01*
X50371428Y3324541D02*
X50342857Y3248351D01*
X50342857Y3248351D02*
X50285714Y3172160D01*
X50285714Y3172160D02*
X50200000Y3134065D01*
X50200000Y3134065D02*
X50057143Y3134065D01*
X50600000Y3934065D02*
X50971428Y3934065D01*
X50971428Y3934065D02*
X50771428Y3629303D01*
X50771428Y3629303D02*
X50857143Y3629303D01*
X50857143Y3629303D02*
X50914286Y3591208D01*
X50914286Y3591208D02*
X50942857Y3553113D01*
X50942857Y3553113D02*
X50971428Y3476922D01*
X50971428Y3476922D02*
X50971428Y3286446D01*
X50971428Y3286446D02*
X50942857Y3210256D01*
X50942857Y3210256D02*
X50914286Y3172160D01*
X50914286Y3172160D02*
X50857143Y3134065D01*
X50857143Y3134065D02*
X50685714Y3134065D01*
X50685714Y3134065D02*
X50628571Y3172160D01*
X50628571Y3172160D02*
X50600000Y3210256D01*
X47360935Y6414286D02*
X47360935Y6128572D01*
X47360935Y6128572D02*
X47741887Y6100000D01*
X47741887Y6100000D02*
X47703792Y6128572D01*
X47703792Y6128572D02*
X47665697Y6185714D01*
X47665697Y6185714D02*
X47665697Y6328572D01*
X47665697Y6328572D02*
X47703792Y6385714D01*
X47703792Y6385714D02*
X47741887Y6414286D01*
X47741887Y6414286D02*
X47818078Y6442857D01*
X47818078Y6442857D02*
X48008554Y6442857D01*
X48008554Y6442857D02*
X48084744Y6414286D01*
X48084744Y6414286D02*
X48122840Y6385714D01*
X48122840Y6385714D02*
X48160935Y6328572D01*
X48160935Y6328572D02*
X48160935Y6185714D01*
X48160935Y6185714D02*
X48122840Y6128572D01*
X48122840Y6128572D02*
X48084744Y6100000D01*
X48160935Y7014286D02*
X48160935Y6671429D01*
X48160935Y6842858D02*
X47360935Y6842858D01*
X47360935Y6842858D02*
X47475220Y6785715D01*
X47475220Y6785715D02*
X47551411Y6728572D01*
X47551411Y6728572D02*
X47589506Y6671429D01*
X47360935Y7385715D02*
X47360935Y7442858D01*
X47360935Y7442858D02*
X47399030Y7500001D01*
X47399030Y7500001D02*
X47437125Y7528572D01*
X47437125Y7528572D02*
X47513316Y7557144D01*
X47513316Y7557144D02*
X47665697Y7585715D01*
X47665697Y7585715D02*
X47856173Y7585715D01*
X47856173Y7585715D02*
X48008554Y7557144D01*
X48008554Y7557144D02*
X48084744Y7528572D01*
X48084744Y7528572D02*
X48122840Y7500001D01*
X48122840Y7500001D02*
X48160935Y7442858D01*
X48160935Y7442858D02*
X48160935Y7385715D01*
X48160935Y7385715D02*
X48122840Y7328572D01*
X48122840Y7328572D02*
X48084744Y7300001D01*
X48084744Y7300001D02*
X48008554Y7271430D01*
X48008554Y7271430D02*
X47856173Y7242858D01*
X47856173Y7242858D02*
X47665697Y7242858D01*
X47665697Y7242858D02*
X47513316Y7271430D01*
X47513316Y7271430D02*
X47437125Y7300001D01*
X47437125Y7300001D02*
X47399030Y7328572D01*
X47399030Y7328572D02*
X47360935Y7385715D01*
X48160935Y8185716D02*
X47779982Y7985716D01*
X48160935Y7842859D02*
X47360935Y7842859D01*
X47360935Y7842859D02*
X47360935Y8071430D01*
X47360935Y8071430D02*
X47399030Y8128573D01*
X47399030Y8128573D02*
X47437125Y8157144D01*
X47437125Y8157144D02*
X47513316Y8185716D01*
X47513316Y8185716D02*
X47627601Y8185716D01*
X47627601Y8185716D02*
X47703792Y8157144D01*
X47703792Y8157144D02*
X47741887Y8128573D01*
X47741887Y8128573D02*
X47779982Y8071430D01*
X47779982Y8071430D02*
X47779982Y7842859D01*
X48160935Y9214287D02*
X48160935Y8871430D01*
X48160935Y9042859D02*
X47360935Y9042859D01*
X47360935Y9042859D02*
X47475220Y8985716D01*
X47475220Y8985716D02*
X47551411Y8928573D01*
X47551411Y8928573D02*
X47589506Y8871430D01*
X47360935Y9414288D02*
X48160935Y9557145D01*
X48160935Y9557145D02*
X47589506Y9671431D01*
X47589506Y9671431D02*
X48160935Y9785716D01*
X48160935Y9785716D02*
X47360935Y9928573D01*
X49990935Y7614286D02*
X49609982Y7414286D01*
X49990935Y7271429D02*
X49190935Y7271429D01*
X49190935Y7271429D02*
X49190935Y7500000D01*
X49190935Y7500000D02*
X49229030Y7557143D01*
X49229030Y7557143D02*
X49267125Y7585714D01*
X49267125Y7585714D02*
X49343316Y7614286D01*
X49343316Y7614286D02*
X49457601Y7614286D01*
X49457601Y7614286D02*
X49533792Y7585714D01*
X49533792Y7585714D02*
X49571887Y7557143D01*
X49571887Y7557143D02*
X49609982Y7500000D01*
X49609982Y7500000D02*
X49609982Y7271429D01*
X49990935Y8185714D02*
X49990935Y7842857D01*
X49990935Y8014286D02*
X49190935Y8014286D01*
X49190935Y8014286D02*
X49305220Y7957143D01*
X49305220Y7957143D02*
X49381411Y7900000D01*
X49381411Y7900000D02*
X49419506Y7842857D01*
X49990935Y8757143D02*
X49990935Y8414286D01*
X49990935Y8585715D02*
X49190935Y8585715D01*
X49190935Y8585715D02*
X49305220Y8528572D01*
X49305220Y8528572D02*
X49381411Y8471429D01*
X49381411Y8471429D02*
X49419506Y8414286D01*
X7871428Y9884065D02*
X7528571Y9884065D01*
X7700000Y9884065D02*
X7700000Y10684065D01*
X7700000Y10684065D02*
X7642857Y10569780D01*
X7642857Y10569780D02*
X7585714Y10493589D01*
X7585714Y10493589D02*
X7528571Y10455494D01*
X8128572Y9884065D02*
X8128572Y10684065D01*
X8471429Y9884065D02*
X8214286Y10341208D01*
X8471429Y10684065D02*
X8128572Y10226922D01*
X9114285Y11634065D02*
X8914285Y12015018D01*
X8771428Y11634065D02*
X8771428Y12434065D01*
X8771428Y12434065D02*
X8999999Y12434065D01*
X8999999Y12434065D02*
X9057142Y12395970D01*
X9057142Y12395970D02*
X9085713Y12357875D01*
X9085713Y12357875D02*
X9114285Y12281684D01*
X9114285Y12281684D02*
X9114285Y12167399D01*
X9114285Y12167399D02*
X9085713Y12091208D01*
X9085713Y12091208D02*
X9057142Y12053113D01*
X9057142Y12053113D02*
X8999999Y12015018D01*
X8999999Y12015018D02*
X8771428Y12015018D01*
X9685713Y11634065D02*
X9342856Y11634065D01*
X9514285Y11634065D02*
X9514285Y12434065D01*
X9514285Y12434065D02*
X9457142Y12319780D01*
X9457142Y12319780D02*
X9399999Y12243589D01*
X9399999Y12243589D02*
X9342856Y12205494D01*
X9914285Y12357875D02*
X9942857Y12395970D01*
X9942857Y12395970D02*
X10000000Y12434065D01*
X10000000Y12434065D02*
X10142857Y12434065D01*
X10142857Y12434065D02*
X10200000Y12395970D01*
X10200000Y12395970D02*
X10228571Y12357875D01*
X10228571Y12357875D02*
X10257142Y12281684D01*
X10257142Y12281684D02*
X10257142Y12205494D01*
X10257142Y12205494D02*
X10228571Y12091208D01*
X10228571Y12091208D02*
X9885714Y11634065D01*
X9885714Y11634065D02*
X10257142Y11634065D01*
X11615935Y15142857D02*
X11615935Y14800000D01*
X11615935Y14971429D02*
X10815935Y14971429D01*
X10815935Y14971429D02*
X10930220Y14914286D01*
X10930220Y14914286D02*
X11006411Y14857143D01*
X11006411Y14857143D02*
X11044506Y14800000D01*
X11082601Y15657143D02*
X11615935Y15657143D01*
X11082601Y15400001D02*
X11501649Y15400001D01*
X11501649Y15400001D02*
X11577840Y15428572D01*
X11577840Y15428572D02*
X11615935Y15485715D01*
X11615935Y15485715D02*
X11615935Y15571429D01*
X11615935Y15571429D02*
X11577840Y15628572D01*
X11577840Y15628572D02*
X11539744Y15657143D01*
X11196887Y16142858D02*
X11196887Y15942858D01*
X11615935Y15942858D02*
X10815935Y15942858D01*
X10815935Y15942858D02*
X10815935Y16228572D01*
X9789744Y15900001D02*
X9827840Y15871429D01*
X9827840Y15871429D02*
X9865935Y15785715D01*
X9865935Y15785715D02*
X9865935Y15728572D01*
X9865935Y15728572D02*
X9827840Y15642858D01*
X9827840Y15642858D02*
X9751649Y15585715D01*
X9751649Y15585715D02*
X9675459Y15557144D01*
X9675459Y15557144D02*
X9523078Y15528572D01*
X9523078Y15528572D02*
X9408792Y15528572D01*
X9408792Y15528572D02*
X9256411Y15557144D01*
X9256411Y15557144D02*
X9180220Y15585715D01*
X9180220Y15585715D02*
X9104030Y15642858D01*
X9104030Y15642858D02*
X9065935Y15728572D01*
X9065935Y15728572D02*
X9065935Y15785715D01*
X9065935Y15785715D02*
X9104030Y15871429D01*
X9104030Y15871429D02*
X9142125Y15900001D01*
X9865935Y16471429D02*
X9865935Y16128572D01*
X9865935Y16300001D02*
X9065935Y16300001D01*
X9065935Y16300001D02*
X9180220Y16242858D01*
X9180220Y16242858D02*
X9256411Y16185715D01*
X9256411Y16185715D02*
X9294506Y16128572D01*
X32614286Y6274065D02*
X32328572Y6274065D01*
X32328572Y6274065D02*
X32328572Y7074065D01*
X32814286Y6693113D02*
X33014286Y6693113D01*
X33100000Y6274065D02*
X32814286Y6274065D01*
X32814286Y6274065D02*
X32814286Y7074065D01*
X32814286Y7074065D02*
X33100000Y7074065D01*
X33357143Y6274065D02*
X33357143Y7074065D01*
X33357143Y7074065D02*
X33500000Y7074065D01*
X33500000Y7074065D02*
X33585714Y7035970D01*
X33585714Y7035970D02*
X33642857Y6959780D01*
X33642857Y6959780D02*
X33671428Y6883589D01*
X33671428Y6883589D02*
X33700000Y6731208D01*
X33700000Y6731208D02*
X33700000Y6616922D01*
X33700000Y6616922D02*
X33671428Y6464541D01*
X33671428Y6464541D02*
X33642857Y6388351D01*
X33642857Y6388351D02*
X33585714Y6312160D01*
X33585714Y6312160D02*
X33500000Y6274065D01*
X33500000Y6274065D02*
X33357143Y6274065D01*
X32557143Y8134065D02*
X32557143Y8934065D01*
X32557143Y8934065D02*
X32700000Y8934065D01*
X32700000Y8934065D02*
X32785714Y8895970D01*
X32785714Y8895970D02*
X32842857Y8819780D01*
X32842857Y8819780D02*
X32871428Y8743589D01*
X32871428Y8743589D02*
X32900000Y8591208D01*
X32900000Y8591208D02*
X32900000Y8476922D01*
X32900000Y8476922D02*
X32871428Y8324541D01*
X32871428Y8324541D02*
X32842857Y8248351D01*
X32842857Y8248351D02*
X32785714Y8172160D01*
X32785714Y8172160D02*
X32700000Y8134065D01*
X32700000Y8134065D02*
X32557143Y8134065D01*
X33442857Y8934065D02*
X33157143Y8934065D01*
X33157143Y8934065D02*
X33128571Y8553113D01*
X33128571Y8553113D02*
X33157143Y8591208D01*
X33157143Y8591208D02*
X33214286Y8629303D01*
X33214286Y8629303D02*
X33357143Y8629303D01*
X33357143Y8629303D02*
X33414286Y8591208D01*
X33414286Y8591208D02*
X33442857Y8553113D01*
X33442857Y8553113D02*
X33471428Y8476922D01*
X33471428Y8476922D02*
X33471428Y8286446D01*
X33471428Y8286446D02*
X33442857Y8210256D01*
X33442857Y8210256D02*
X33414286Y8172160D01*
X33414286Y8172160D02*
X33357143Y8134065D01*
X33357143Y8134065D02*
X33214286Y8134065D01*
X33214286Y8134065D02*
X33157143Y8172160D01*
X33157143Y8172160D02*
X33128571Y8210256D01*
X4183928Y23434065D02*
X4241071Y23434065D01*
X4241071Y23434065D02*
X4298214Y23395970D01*
X4298214Y23395970D02*
X4326786Y23357875D01*
X4326786Y23357875D02*
X4355357Y23281684D01*
X4355357Y23281684D02*
X4383928Y23129303D01*
X4383928Y23129303D02*
X4383928Y22938827D01*
X4383928Y22938827D02*
X4355357Y22786446D01*
X4355357Y22786446D02*
X4326786Y22710256D01*
X4326786Y22710256D02*
X4298214Y22672160D01*
X4298214Y22672160D02*
X4241071Y22634065D01*
X4241071Y22634065D02*
X4183928Y22634065D01*
X4183928Y22634065D02*
X4126786Y22672160D01*
X4126786Y22672160D02*
X4098214Y22710256D01*
X4098214Y22710256D02*
X4069643Y22786446D01*
X4069643Y22786446D02*
X4041071Y22938827D01*
X4041071Y22938827D02*
X4041071Y23129303D01*
X4041071Y23129303D02*
X4069643Y23281684D01*
X4069643Y23281684D02*
X4098214Y23357875D01*
X4098214Y23357875D02*
X4126786Y23395970D01*
X4126786Y23395970D02*
X4183928Y23434065D01*
X4983929Y22634065D02*
X4783929Y23015018D01*
X4641072Y22634065D02*
X4641072Y23434065D01*
X4641072Y23434065D02*
X4869643Y23434065D01*
X4869643Y23434065D02*
X4926786Y23395970D01*
X4926786Y23395970D02*
X4955357Y23357875D01*
X4955357Y23357875D02*
X4983929Y23281684D01*
X4983929Y23281684D02*
X4983929Y23167399D01*
X4983929Y23167399D02*
X4955357Y23091208D01*
X4955357Y23091208D02*
X4926786Y23053113D01*
X4926786Y23053113D02*
X4869643Y23015018D01*
X4869643Y23015018D02*
X4641072Y23015018D01*
X4412500Y21134065D02*
X4212500Y21515018D01*
X4069643Y21134065D02*
X4069643Y21934065D01*
X4069643Y21934065D02*
X4298214Y21934065D01*
X4298214Y21934065D02*
X4355357Y21895970D01*
X4355357Y21895970D02*
X4383928Y21857875D01*
X4383928Y21857875D02*
X4412500Y21781684D01*
X4412500Y21781684D02*
X4412500Y21667399D01*
X4412500Y21667399D02*
X4383928Y21591208D01*
X4383928Y21591208D02*
X4355357Y21553113D01*
X4355357Y21553113D02*
X4298214Y21515018D01*
X4298214Y21515018D02*
X4069643Y21515018D01*
X4926786Y21667399D02*
X4926786Y21134065D01*
X4783928Y21972160D02*
X4641071Y21400732D01*
X4641071Y21400732D02*
X5012500Y21400732D01*
X53565935Y6414286D02*
X53565935Y6128572D01*
X53565935Y6128572D02*
X53946887Y6100000D01*
X53946887Y6100000D02*
X53908792Y6128572D01*
X53908792Y6128572D02*
X53870697Y6185714D01*
X53870697Y6185714D02*
X53870697Y6328572D01*
X53870697Y6328572D02*
X53908792Y6385714D01*
X53908792Y6385714D02*
X53946887Y6414286D01*
X53946887Y6414286D02*
X54023078Y6442857D01*
X54023078Y6442857D02*
X54213554Y6442857D01*
X54213554Y6442857D02*
X54289744Y6414286D01*
X54289744Y6414286D02*
X54327840Y6385714D01*
X54327840Y6385714D02*
X54365935Y6328572D01*
X54365935Y6328572D02*
X54365935Y6185714D01*
X54365935Y6185714D02*
X54327840Y6128572D01*
X54327840Y6128572D02*
X54289744Y6100000D01*
X54365935Y7014286D02*
X54365935Y6671429D01*
X54365935Y6842858D02*
X53565935Y6842858D01*
X53565935Y6842858D02*
X53680220Y6785715D01*
X53680220Y6785715D02*
X53756411Y6728572D01*
X53756411Y6728572D02*
X53794506Y6671429D01*
X53565935Y7385715D02*
X53565935Y7442858D01*
X53565935Y7442858D02*
X53604030Y7500001D01*
X53604030Y7500001D02*
X53642125Y7528572D01*
X53642125Y7528572D02*
X53718316Y7557144D01*
X53718316Y7557144D02*
X53870697Y7585715D01*
X53870697Y7585715D02*
X54061173Y7585715D01*
X54061173Y7585715D02*
X54213554Y7557144D01*
X54213554Y7557144D02*
X54289744Y7528572D01*
X54289744Y7528572D02*
X54327840Y7500001D01*
X54327840Y7500001D02*
X54365935Y7442858D01*
X54365935Y7442858D02*
X54365935Y7385715D01*
X54365935Y7385715D02*
X54327840Y7328572D01*
X54327840Y7328572D02*
X54289744Y7300001D01*
X54289744Y7300001D02*
X54213554Y7271430D01*
X54213554Y7271430D02*
X54061173Y7242858D01*
X54061173Y7242858D02*
X53870697Y7242858D01*
X53870697Y7242858D02*
X53718316Y7271430D01*
X53718316Y7271430D02*
X53642125Y7300001D01*
X53642125Y7300001D02*
X53604030Y7328572D01*
X53604030Y7328572D02*
X53565935Y7385715D01*
X54365935Y8185716D02*
X53984982Y7985716D01*
X54365935Y7842859D02*
X53565935Y7842859D01*
X53565935Y7842859D02*
X53565935Y8071430D01*
X53565935Y8071430D02*
X53604030Y8128573D01*
X53604030Y8128573D02*
X53642125Y8157144D01*
X53642125Y8157144D02*
X53718316Y8185716D01*
X53718316Y8185716D02*
X53832601Y8185716D01*
X53832601Y8185716D02*
X53908792Y8157144D01*
X53908792Y8157144D02*
X53946887Y8128573D01*
X53946887Y8128573D02*
X53984982Y8071430D01*
X53984982Y8071430D02*
X53984982Y7842859D01*
X54365935Y9214287D02*
X54365935Y8871430D01*
X54365935Y9042859D02*
X53565935Y9042859D01*
X53565935Y9042859D02*
X53680220Y8985716D01*
X53680220Y8985716D02*
X53756411Y8928573D01*
X53756411Y8928573D02*
X53794506Y8871430D01*
X53565935Y9414288D02*
X54365935Y9557145D01*
X54365935Y9557145D02*
X53794506Y9671431D01*
X53794506Y9671431D02*
X54365935Y9785716D01*
X54365935Y9785716D02*
X53565935Y9928573D01*
X52865935Y7900001D02*
X52484982Y7700001D01*
X52865935Y7557144D02*
X52065935Y7557144D01*
X52065935Y7557144D02*
X52065935Y7785715D01*
X52065935Y7785715D02*
X52104030Y7842858D01*
X52104030Y7842858D02*
X52142125Y7871429D01*
X52142125Y7871429D02*
X52218316Y7900001D01*
X52218316Y7900001D02*
X52332601Y7900001D01*
X52332601Y7900001D02*
X52408792Y7871429D01*
X52408792Y7871429D02*
X52446887Y7842858D01*
X52446887Y7842858D02*
X52484982Y7785715D01*
X52484982Y7785715D02*
X52484982Y7557144D01*
X52065935Y8414286D02*
X52065935Y8300001D01*
X52065935Y8300001D02*
X52104030Y8242858D01*
X52104030Y8242858D02*
X52142125Y8214286D01*
X52142125Y8214286D02*
X52256411Y8157144D01*
X52256411Y8157144D02*
X52408792Y8128572D01*
X52408792Y8128572D02*
X52713554Y8128572D01*
X52713554Y8128572D02*
X52789744Y8157144D01*
X52789744Y8157144D02*
X52827840Y8185715D01*
X52827840Y8185715D02*
X52865935Y8242858D01*
X52865935Y8242858D02*
X52865935Y8357144D01*
X52865935Y8357144D02*
X52827840Y8414286D01*
X52827840Y8414286D02*
X52789744Y8442858D01*
X52789744Y8442858D02*
X52713554Y8471429D01*
X52713554Y8471429D02*
X52523078Y8471429D01*
X52523078Y8471429D02*
X52446887Y8442858D01*
X52446887Y8442858D02*
X52408792Y8414286D01*
X52408792Y8414286D02*
X52370697Y8357144D01*
X52370697Y8357144D02*
X52370697Y8242858D01*
X52370697Y8242858D02*
X52408792Y8185715D01*
X52408792Y8185715D02*
X52446887Y8157144D01*
X52446887Y8157144D02*
X52523078Y8128572D01*
X32357142Y13591208D02*
X32299999Y13629303D01*
X32299999Y13629303D02*
X32271428Y13667399D01*
X32271428Y13667399D02*
X32242856Y13743589D01*
X32242856Y13743589D02*
X32242856Y13781684D01*
X32242856Y13781684D02*
X32271428Y13857875D01*
X32271428Y13857875D02*
X32299999Y13895970D01*
X32299999Y13895970D02*
X32357142Y13934065D01*
X32357142Y13934065D02*
X32471428Y13934065D01*
X32471428Y13934065D02*
X32528571Y13895970D01*
X32528571Y13895970D02*
X32557142Y13857875D01*
X32557142Y13857875D02*
X32585713Y13781684D01*
X32585713Y13781684D02*
X32585713Y13743589D01*
X32585713Y13743589D02*
X32557142Y13667399D01*
X32557142Y13667399D02*
X32528571Y13629303D01*
X32528571Y13629303D02*
X32471428Y13591208D01*
X32471428Y13591208D02*
X32357142Y13591208D01*
X32357142Y13591208D02*
X32299999Y13553113D01*
X32299999Y13553113D02*
X32271428Y13515018D01*
X32271428Y13515018D02*
X32242856Y13438827D01*
X32242856Y13438827D02*
X32242856Y13286446D01*
X32242856Y13286446D02*
X32271428Y13210256D01*
X32271428Y13210256D02*
X32299999Y13172160D01*
X32299999Y13172160D02*
X32357142Y13134065D01*
X32357142Y13134065D02*
X32471428Y13134065D01*
X32471428Y13134065D02*
X32528571Y13172160D01*
X32528571Y13172160D02*
X32557142Y13210256D01*
X32557142Y13210256D02*
X32585713Y13286446D01*
X32585713Y13286446D02*
X32585713Y13438827D01*
X32585713Y13438827D02*
X32557142Y13515018D01*
X32557142Y13515018D02*
X32528571Y13553113D01*
X32528571Y13553113D02*
X32471428Y13591208D01*
X32814285Y13857875D02*
X32842857Y13895970D01*
X32842857Y13895970D02*
X32900000Y13934065D01*
X32900000Y13934065D02*
X33042857Y13934065D01*
X33042857Y13934065D02*
X33100000Y13895970D01*
X33100000Y13895970D02*
X33128571Y13857875D01*
X33128571Y13857875D02*
X33157142Y13781684D01*
X33157142Y13781684D02*
X33157142Y13705494D01*
X33157142Y13705494D02*
X33128571Y13591208D01*
X33128571Y13591208D02*
X32785714Y13134065D01*
X32785714Y13134065D02*
X33157142Y13134065D01*
X33757143Y13134065D02*
X33557143Y13515018D01*
X33414286Y13134065D02*
X33414286Y13934065D01*
X33414286Y13934065D02*
X33642857Y13934065D01*
X33642857Y13934065D02*
X33700000Y13895970D01*
X33700000Y13895970D02*
X33728571Y13857875D01*
X33728571Y13857875D02*
X33757143Y13781684D01*
X33757143Y13781684D02*
X33757143Y13667399D01*
X33757143Y13667399D02*
X33728571Y13591208D01*
X33728571Y13591208D02*
X33700000Y13553113D01*
X33700000Y13553113D02*
X33642857Y13515018D01*
X33642857Y13515018D02*
X33414286Y13515018D01*
X32614285Y11634065D02*
X32414285Y12015018D01*
X32271428Y11634065D02*
X32271428Y12434065D01*
X32271428Y12434065D02*
X32499999Y12434065D01*
X32499999Y12434065D02*
X32557142Y12395970D01*
X32557142Y12395970D02*
X32585713Y12357875D01*
X32585713Y12357875D02*
X32614285Y12281684D01*
X32614285Y12281684D02*
X32614285Y12167399D01*
X32614285Y12167399D02*
X32585713Y12091208D01*
X32585713Y12091208D02*
X32557142Y12053113D01*
X32557142Y12053113D02*
X32499999Y12015018D01*
X32499999Y12015018D02*
X32271428Y12015018D01*
X33185713Y11634065D02*
X32842856Y11634065D01*
X33014285Y11634065D02*
X33014285Y12434065D01*
X33014285Y12434065D02*
X32957142Y12319780D01*
X32957142Y12319780D02*
X32899999Y12243589D01*
X32899999Y12243589D02*
X32842856Y12205494D01*
X33557142Y12434065D02*
X33614285Y12434065D01*
X33614285Y12434065D02*
X33671428Y12395970D01*
X33671428Y12395970D02*
X33700000Y12357875D01*
X33700000Y12357875D02*
X33728571Y12281684D01*
X33728571Y12281684D02*
X33757142Y12129303D01*
X33757142Y12129303D02*
X33757142Y11938827D01*
X33757142Y11938827D02*
X33728571Y11786446D01*
X33728571Y11786446D02*
X33700000Y11710256D01*
X33700000Y11710256D02*
X33671428Y11672160D01*
X33671428Y11672160D02*
X33614285Y11634065D01*
X33614285Y11634065D02*
X33557142Y11634065D01*
X33557142Y11634065D02*
X33500000Y11672160D01*
X33500000Y11672160D02*
X33471428Y11710256D01*
X33471428Y11710256D02*
X33442857Y11786446D01*
X33442857Y11786446D02*
X33414285Y11938827D01*
X33414285Y11938827D02*
X33414285Y12129303D01*
X33414285Y12129303D02*
X33442857Y12281684D01*
X33442857Y12281684D02*
X33471428Y12357875D01*
X33471428Y12357875D02*
X33500000Y12395970D01*
X33500000Y12395970D02*
X33557142Y12434065D01*
X32564286Y2274065D02*
X32278572Y2274065D01*
X32278572Y2274065D02*
X32278572Y3074065D01*
X32764286Y2693113D02*
X32964286Y2693113D01*
X33050000Y2274065D02*
X32764286Y2274065D01*
X32764286Y2274065D02*
X32764286Y3074065D01*
X32764286Y3074065D02*
X33050000Y3074065D01*
X33307143Y2274065D02*
X33307143Y3074065D01*
X33307143Y3074065D02*
X33450000Y3074065D01*
X33450000Y3074065D02*
X33535714Y3035970D01*
X33535714Y3035970D02*
X33592857Y2959780D01*
X33592857Y2959780D02*
X33621428Y2883589D01*
X33621428Y2883589D02*
X33650000Y2731208D01*
X33650000Y2731208D02*
X33650000Y2616922D01*
X33650000Y2616922D02*
X33621428Y2464541D01*
X33621428Y2464541D02*
X33592857Y2388351D01*
X33592857Y2388351D02*
X33535714Y2312160D01*
X33535714Y2312160D02*
X33450000Y2274065D01*
X33450000Y2274065D02*
X33307143Y2274065D01*
X32507143Y4134065D02*
X32507143Y4934065D01*
X32507143Y4934065D02*
X32650000Y4934065D01*
X32650000Y4934065D02*
X32735714Y4895970D01*
X32735714Y4895970D02*
X32792857Y4819780D01*
X32792857Y4819780D02*
X32821428Y4743589D01*
X32821428Y4743589D02*
X32850000Y4591208D01*
X32850000Y4591208D02*
X32850000Y4476922D01*
X32850000Y4476922D02*
X32821428Y4324541D01*
X32821428Y4324541D02*
X32792857Y4248351D01*
X32792857Y4248351D02*
X32735714Y4172160D01*
X32735714Y4172160D02*
X32650000Y4134065D01*
X32650000Y4134065D02*
X32507143Y4134065D01*
X33364286Y4934065D02*
X33250000Y4934065D01*
X33250000Y4934065D02*
X33192857Y4895970D01*
X33192857Y4895970D02*
X33164286Y4857875D01*
X33164286Y4857875D02*
X33107143Y4743589D01*
X33107143Y4743589D02*
X33078571Y4591208D01*
X33078571Y4591208D02*
X33078571Y4286446D01*
X33078571Y4286446D02*
X33107143Y4210256D01*
X33107143Y4210256D02*
X33135714Y4172160D01*
X33135714Y4172160D02*
X33192857Y4134065D01*
X33192857Y4134065D02*
X33307143Y4134065D01*
X33307143Y4134065D02*
X33364286Y4172160D01*
X33364286Y4172160D02*
X33392857Y4210256D01*
X33392857Y4210256D02*
X33421428Y4286446D01*
X33421428Y4286446D02*
X33421428Y4476922D01*
X33421428Y4476922D02*
X33392857Y4553113D01*
X33392857Y4553113D02*
X33364286Y4591208D01*
X33364286Y4591208D02*
X33307143Y4629303D01*
X33307143Y4629303D02*
X33192857Y4629303D01*
X33192857Y4629303D02*
X33135714Y4591208D01*
X33135714Y4591208D02*
X33107143Y4553113D01*
X33107143Y4553113D02*
X33078571Y4476922D01*
X26371428Y13464065D02*
X26028571Y13464065D01*
X26200000Y13464065D02*
X26200000Y14264065D01*
X26200000Y14264065D02*
X26142857Y14149780D01*
X26142857Y14149780D02*
X26085714Y14073589D01*
X26085714Y14073589D02*
X26028571Y14035494D01*
X26628572Y13464065D02*
X26628572Y14264065D01*
X26971429Y13464065D02*
X26714286Y13921208D01*
X26971429Y14264065D02*
X26628572Y13806922D01*
X26400000Y11634065D02*
X26200000Y12015018D01*
X26057143Y11634065D02*
X26057143Y12434065D01*
X26057143Y12434065D02*
X26285714Y12434065D01*
X26285714Y12434065D02*
X26342857Y12395970D01*
X26342857Y12395970D02*
X26371428Y12357875D01*
X26371428Y12357875D02*
X26400000Y12281684D01*
X26400000Y12281684D02*
X26400000Y12167399D01*
X26400000Y12167399D02*
X26371428Y12091208D01*
X26371428Y12091208D02*
X26342857Y12053113D01*
X26342857Y12053113D02*
X26285714Y12015018D01*
X26285714Y12015018D02*
X26057143Y12015018D01*
X26742857Y12091208D02*
X26685714Y12129303D01*
X26685714Y12129303D02*
X26657143Y12167399D01*
X26657143Y12167399D02*
X26628571Y12243589D01*
X26628571Y12243589D02*
X26628571Y12281684D01*
X26628571Y12281684D02*
X26657143Y12357875D01*
X26657143Y12357875D02*
X26685714Y12395970D01*
X26685714Y12395970D02*
X26742857Y12434065D01*
X26742857Y12434065D02*
X26857143Y12434065D01*
X26857143Y12434065D02*
X26914286Y12395970D01*
X26914286Y12395970D02*
X26942857Y12357875D01*
X26942857Y12357875D02*
X26971428Y12281684D01*
X26971428Y12281684D02*
X26971428Y12243589D01*
X26971428Y12243589D02*
X26942857Y12167399D01*
X26942857Y12167399D02*
X26914286Y12129303D01*
X26914286Y12129303D02*
X26857143Y12091208D01*
X26857143Y12091208D02*
X26742857Y12091208D01*
X26742857Y12091208D02*
X26685714Y12053113D01*
X26685714Y12053113D02*
X26657143Y12015018D01*
X26657143Y12015018D02*
X26628571Y11938827D01*
X26628571Y11938827D02*
X26628571Y11786446D01*
X26628571Y11786446D02*
X26657143Y11710256D01*
X26657143Y11710256D02*
X26685714Y11672160D01*
X26685714Y11672160D02*
X26742857Y11634065D01*
X26742857Y11634065D02*
X26857143Y11634065D01*
X26857143Y11634065D02*
X26914286Y11672160D01*
X26914286Y11672160D02*
X26942857Y11710256D01*
X26942857Y11710256D02*
X26971428Y11786446D01*
X26971428Y11786446D02*
X26971428Y11938827D01*
X26971428Y11938827D02*
X26942857Y12015018D01*
X26942857Y12015018D02*
X26914286Y12053113D01*
X26914286Y12053113D02*
X26857143Y12091208D01*
X1565935Y29462858D02*
X2213554Y29462858D01*
X2213554Y29462858D02*
X2289744Y29491429D01*
X2289744Y29491429D02*
X2327840Y29520000D01*
X2327840Y29520000D02*
X2365935Y29577143D01*
X2365935Y29577143D02*
X2365935Y29691429D01*
X2365935Y29691429D02*
X2327840Y29748572D01*
X2327840Y29748572D02*
X2289744Y29777143D01*
X2289744Y29777143D02*
X2213554Y29805715D01*
X2213554Y29805715D02*
X1565935Y29805715D01*
X1642125Y30062857D02*
X1604030Y30091429D01*
X1604030Y30091429D02*
X1565935Y30148571D01*
X1565935Y30148571D02*
X1565935Y30291429D01*
X1565935Y30291429D02*
X1604030Y30348571D01*
X1604030Y30348571D02*
X1642125Y30377143D01*
X1642125Y30377143D02*
X1718316Y30405714D01*
X1718316Y30405714D02*
X1794506Y30405714D01*
X1794506Y30405714D02*
X1908792Y30377143D01*
X1908792Y30377143D02*
X2365935Y30034286D01*
X2365935Y30034286D02*
X2365935Y30405714D01*
X41946887Y24744287D02*
X41946887Y24944287D01*
X42365935Y25030001D02*
X42365935Y24744287D01*
X42365935Y24744287D02*
X41565935Y24744287D01*
X41565935Y24744287D02*
X41565935Y25030001D01*
X42365935Y25630001D02*
X41984982Y25430001D01*
X42365935Y25287144D02*
X41565935Y25287144D01*
X41565935Y25287144D02*
X41565935Y25515715D01*
X41565935Y25515715D02*
X41604030Y25572858D01*
X41604030Y25572858D02*
X41642125Y25601429D01*
X41642125Y25601429D02*
X41718316Y25630001D01*
X41718316Y25630001D02*
X41832601Y25630001D01*
X41832601Y25630001D02*
X41908792Y25601429D01*
X41908792Y25601429D02*
X41946887Y25572858D01*
X41946887Y25572858D02*
X41984982Y25515715D01*
X41984982Y25515715D02*
X41984982Y25287144D01*
X42442125Y25744286D02*
X42442125Y26201429D01*
X41565935Y26458572D02*
X41565935Y26572858D01*
X41565935Y26572858D02*
X41604030Y26630001D01*
X41604030Y26630001D02*
X41680220Y26687144D01*
X41680220Y26687144D02*
X41832601Y26715715D01*
X41832601Y26715715D02*
X42099268Y26715715D01*
X42099268Y26715715D02*
X42251649Y26687144D01*
X42251649Y26687144D02*
X42327840Y26630001D01*
X42327840Y26630001D02*
X42365935Y26572858D01*
X42365935Y26572858D02*
X42365935Y26458572D01*
X42365935Y26458572D02*
X42327840Y26401429D01*
X42327840Y26401429D02*
X42251649Y26344287D01*
X42251649Y26344287D02*
X42099268Y26315715D01*
X42099268Y26315715D02*
X41832601Y26315715D01*
X41832601Y26315715D02*
X41680220Y26344287D01*
X41680220Y26344287D02*
X41604030Y26401429D01*
X41604030Y26401429D02*
X41565935Y26458572D01*
X42365935Y27258572D02*
X42365935Y26972858D01*
X42365935Y26972858D02*
X41565935Y26972858D01*
X41946887Y27458572D02*
X41946887Y27658572D01*
X42365935Y27744286D02*
X42365935Y27458572D01*
X42365935Y27458572D02*
X41565935Y27458572D01*
X41565935Y27458572D02*
X41565935Y27744286D01*
X42365935Y28001429D02*
X41565935Y28001429D01*
X41565935Y28001429D02*
X41565935Y28144286D01*
X41565935Y28144286D02*
X41604030Y28230000D01*
X41604030Y28230000D02*
X41680220Y28287143D01*
X41680220Y28287143D02*
X41756411Y28315714D01*
X41756411Y28315714D02*
X41908792Y28344286D01*
X41908792Y28344286D02*
X42023078Y28344286D01*
X42023078Y28344286D02*
X42175459Y28315714D01*
X42175459Y28315714D02*
X42251649Y28287143D01*
X42251649Y28287143D02*
X42327840Y28230000D01*
X42327840Y28230000D02*
X42365935Y28144286D01*
X42365935Y28144286D02*
X42365935Y28001429D01*
X42365935Y28601429D02*
X41565935Y28601429D01*
X41565935Y28601429D02*
X42137363Y28801429D01*
X42137363Y28801429D02*
X41565935Y29001429D01*
X41565935Y29001429D02*
X42365935Y29001429D01*
X41565935Y29401428D02*
X41565935Y29458571D01*
X41565935Y29458571D02*
X41604030Y29515714D01*
X41604030Y29515714D02*
X41642125Y29544285D01*
X41642125Y29544285D02*
X41718316Y29572857D01*
X41718316Y29572857D02*
X41870697Y29601428D01*
X41870697Y29601428D02*
X42061173Y29601428D01*
X42061173Y29601428D02*
X42213554Y29572857D01*
X42213554Y29572857D02*
X42289744Y29544285D01*
X42289744Y29544285D02*
X42327840Y29515714D01*
X42327840Y29515714D02*
X42365935Y29458571D01*
X42365935Y29458571D02*
X42365935Y29401428D01*
X42365935Y29401428D02*
X42327840Y29344285D01*
X42327840Y29344285D02*
X42289744Y29315714D01*
X42289744Y29315714D02*
X42213554Y29287143D01*
X42213554Y29287143D02*
X42061173Y29258571D01*
X42061173Y29258571D02*
X41870697Y29258571D01*
X41870697Y29258571D02*
X41718316Y29287143D01*
X41718316Y29287143D02*
X41642125Y29315714D01*
X41642125Y29315714D02*
X41604030Y29344285D01*
X41604030Y29344285D02*
X41565935Y29401428D01*
X42289744Y29858572D02*
X42327840Y29887143D01*
X42327840Y29887143D02*
X42365935Y29858572D01*
X42365935Y29858572D02*
X42327840Y29830000D01*
X42327840Y29830000D02*
X42289744Y29858572D01*
X42289744Y29858572D02*
X42365935Y29858572D01*
X42365935Y30172857D02*
X42365935Y30287143D01*
X42365935Y30287143D02*
X42327840Y30344286D01*
X42327840Y30344286D02*
X42289744Y30372857D01*
X42289744Y30372857D02*
X42175459Y30430000D01*
X42175459Y30430000D02*
X42023078Y30458571D01*
X42023078Y30458571D02*
X41718316Y30458571D01*
X41718316Y30458571D02*
X41642125Y30430000D01*
X41642125Y30430000D02*
X41604030Y30401428D01*
X41604030Y30401428D02*
X41565935Y30344286D01*
X41565935Y30344286D02*
X41565935Y30230000D01*
X41565935Y30230000D02*
X41604030Y30172857D01*
X41604030Y30172857D02*
X41642125Y30144286D01*
X41642125Y30144286D02*
X41718316Y30115714D01*
X41718316Y30115714D02*
X41908792Y30115714D01*
X41908792Y30115714D02*
X41984982Y30144286D01*
X41984982Y30144286D02*
X42023078Y30172857D01*
X42023078Y30172857D02*
X42061173Y30230000D01*
X42061173Y30230000D02*
X42061173Y30344286D01*
X42061173Y30344286D02*
X42023078Y30401428D01*
X42023078Y30401428D02*
X41984982Y30430000D01*
X41984982Y30430000D02*
X41908792Y30458571D01*
X42365935Y31030000D02*
X42365935Y30687143D01*
X42365935Y30858572D02*
X41565935Y30858572D01*
X41565935Y30858572D02*
X41680220Y30801429D01*
X41680220Y30801429D02*
X41756411Y30744286D01*
X41756411Y30744286D02*
X41794506Y30687143D01*
X42442125Y31144286D02*
X42442125Y31601429D01*
X42365935Y32058572D02*
X42365935Y31715715D01*
X42365935Y31887144D02*
X41565935Y31887144D01*
X41565935Y31887144D02*
X41680220Y31830001D01*
X41680220Y31830001D02*
X41756411Y31772858D01*
X41756411Y31772858D02*
X41794506Y31715715D01*
X42365935Y32258573D02*
X41832601Y32572858D01*
X41832601Y32258573D02*
X42365935Y32572858D01*
X42061173Y32801430D02*
X42061173Y33258572D01*
X42365935Y33544287D02*
X41565935Y33544287D01*
X41642125Y33801429D02*
X41604030Y33830001D01*
X41604030Y33830001D02*
X41565935Y33887143D01*
X41565935Y33887143D02*
X41565935Y34030001D01*
X41565935Y34030001D02*
X41604030Y34087143D01*
X41604030Y34087143D02*
X41642125Y34115715D01*
X41642125Y34115715D02*
X41718316Y34144286D01*
X41718316Y34144286D02*
X41794506Y34144286D01*
X41794506Y34144286D02*
X41908792Y34115715D01*
X41908792Y34115715D02*
X42365935Y33772858D01*
X42365935Y33772858D02*
X42365935Y34144286D01*
X42289744Y34744287D02*
X42327840Y34715715D01*
X42327840Y34715715D02*
X42365935Y34630001D01*
X42365935Y34630001D02*
X42365935Y34572858D01*
X42365935Y34572858D02*
X42327840Y34487144D01*
X42327840Y34487144D02*
X42251649Y34430001D01*
X42251649Y34430001D02*
X42175459Y34401430D01*
X42175459Y34401430D02*
X42023078Y34372858D01*
X42023078Y34372858D02*
X41908792Y34372858D01*
X41908792Y34372858D02*
X41756411Y34401430D01*
X41756411Y34401430D02*
X41680220Y34430001D01*
X41680220Y34430001D02*
X41604030Y34487144D01*
X41604030Y34487144D02*
X41565935Y34572858D01*
X41565935Y34572858D02*
X41565935Y34630001D01*
X41565935Y34630001D02*
X41604030Y34715715D01*
X41604030Y34715715D02*
X41642125Y34744287D01*
X19042857Y30934065D02*
X19042857Y30286446D01*
X19042857Y30286446D02*
X19071428Y30210256D01*
X19071428Y30210256D02*
X19100000Y30172160D01*
X19100000Y30172160D02*
X19157142Y30134065D01*
X19157142Y30134065D02*
X19271428Y30134065D01*
X19271428Y30134065D02*
X19328571Y30172160D01*
X19328571Y30172160D02*
X19357142Y30210256D01*
X19357142Y30210256D02*
X19385714Y30286446D01*
X19385714Y30286446D02*
X19385714Y30934065D01*
X19642856Y30857875D02*
X19671428Y30895970D01*
X19671428Y30895970D02*
X19728571Y30934065D01*
X19728571Y30934065D02*
X19871428Y30934065D01*
X19871428Y30934065D02*
X19928571Y30895970D01*
X19928571Y30895970D02*
X19957142Y30857875D01*
X19957142Y30857875D02*
X19985713Y30781684D01*
X19985713Y30781684D02*
X19985713Y30705494D01*
X19985713Y30705494D02*
X19957142Y30591208D01*
X19957142Y30591208D02*
X19614285Y30134065D01*
X19614285Y30134065D02*
X19985713Y30134065D01*
X4126786Y12804065D02*
X3841072Y12804065D01*
X3841072Y12804065D02*
X3841072Y13604065D01*
X4326786Y13223113D02*
X4526786Y13223113D01*
X4612500Y12804065D02*
X4326786Y12804065D01*
X4326786Y12804065D02*
X4326786Y13604065D01*
X4326786Y13604065D02*
X4612500Y13604065D01*
X4869643Y12804065D02*
X4869643Y13604065D01*
X4869643Y13604065D02*
X5012500Y13604065D01*
X5012500Y13604065D02*
X5098214Y13565970D01*
X5098214Y13565970D02*
X5155357Y13489780D01*
X5155357Y13489780D02*
X5183928Y13413589D01*
X5183928Y13413589D02*
X5212500Y13261208D01*
X5212500Y13261208D02*
X5212500Y13146922D01*
X5212500Y13146922D02*
X5183928Y12994541D01*
X5183928Y12994541D02*
X5155357Y12918351D01*
X5155357Y12918351D02*
X5098214Y12842160D01*
X5098214Y12842160D02*
X5012500Y12804065D01*
X5012500Y12804065D02*
X4869643Y12804065D01*
X4069643Y14634065D02*
X4069643Y15434065D01*
X4069643Y15434065D02*
X4212500Y15434065D01*
X4212500Y15434065D02*
X4298214Y15395970D01*
X4298214Y15395970D02*
X4355357Y15319780D01*
X4355357Y15319780D02*
X4383928Y15243589D01*
X4383928Y15243589D02*
X4412500Y15091208D01*
X4412500Y15091208D02*
X4412500Y14976922D01*
X4412500Y14976922D02*
X4383928Y14824541D01*
X4383928Y14824541D02*
X4355357Y14748351D01*
X4355357Y14748351D02*
X4298214Y14672160D01*
X4298214Y14672160D02*
X4212500Y14634065D01*
X4212500Y14634065D02*
X4069643Y14634065D01*
X4641071Y15357875D02*
X4669643Y15395970D01*
X4669643Y15395970D02*
X4726786Y15434065D01*
X4726786Y15434065D02*
X4869643Y15434065D01*
X4869643Y15434065D02*
X4926786Y15395970D01*
X4926786Y15395970D02*
X4955357Y15357875D01*
X4955357Y15357875D02*
X4983928Y15281684D01*
X4983928Y15281684D02*
X4983928Y15205494D01*
X4983928Y15205494D02*
X4955357Y15091208D01*
X4955357Y15091208D02*
X4612500Y14634065D01*
X4612500Y14634065D02*
X4983928Y14634065D01*
X19035935Y15085714D02*
X19035935Y14742857D01*
X19035935Y14914286D02*
X18235935Y14914286D01*
X18235935Y14914286D02*
X18350220Y14857143D01*
X18350220Y14857143D02*
X18426411Y14800000D01*
X18426411Y14800000D02*
X18464506Y14742857D01*
X18235935Y15457143D02*
X18235935Y15514286D01*
X18235935Y15514286D02*
X18274030Y15571429D01*
X18274030Y15571429D02*
X18312125Y15600000D01*
X18312125Y15600000D02*
X18388316Y15628572D01*
X18388316Y15628572D02*
X18540697Y15657143D01*
X18540697Y15657143D02*
X18731173Y15657143D01*
X18731173Y15657143D02*
X18883554Y15628572D01*
X18883554Y15628572D02*
X18959744Y15600000D01*
X18959744Y15600000D02*
X18997840Y15571429D01*
X18997840Y15571429D02*
X19035935Y15514286D01*
X19035935Y15514286D02*
X19035935Y15457143D01*
X19035935Y15457143D02*
X18997840Y15400000D01*
X18997840Y15400000D02*
X18959744Y15371429D01*
X18959744Y15371429D02*
X18883554Y15342858D01*
X18883554Y15342858D02*
X18731173Y15314286D01*
X18731173Y15314286D02*
X18540697Y15314286D01*
X18540697Y15314286D02*
X18388316Y15342858D01*
X18388316Y15342858D02*
X18312125Y15371429D01*
X18312125Y15371429D02*
X18274030Y15400000D01*
X18274030Y15400000D02*
X18235935Y15457143D01*
X19035935Y15914287D02*
X18235935Y15914287D01*
X19035935Y16257144D02*
X18578792Y16000001D01*
X18235935Y16257144D02*
X18693078Y15914287D01*
X20865935Y15400001D02*
X20484982Y15200001D01*
X20865935Y15057144D02*
X20065935Y15057144D01*
X20065935Y15057144D02*
X20065935Y15285715D01*
X20065935Y15285715D02*
X20104030Y15342858D01*
X20104030Y15342858D02*
X20142125Y15371429D01*
X20142125Y15371429D02*
X20218316Y15400001D01*
X20218316Y15400001D02*
X20332601Y15400001D01*
X20332601Y15400001D02*
X20408792Y15371429D01*
X20408792Y15371429D02*
X20446887Y15342858D01*
X20446887Y15342858D02*
X20484982Y15285715D01*
X20484982Y15285715D02*
X20484982Y15057144D01*
X20865935Y15971429D02*
X20865935Y15628572D01*
X20865935Y15800001D02*
X20065935Y15800001D01*
X20065935Y15800001D02*
X20180220Y15742858D01*
X20180220Y15742858D02*
X20256411Y15685715D01*
X20256411Y15685715D02*
X20294506Y15628572D01*
X30681785Y17584065D02*
X30738928Y17584065D01*
X30738928Y17584065D02*
X30796071Y17545970D01*
X30796071Y17545970D02*
X30824643Y17507875D01*
X30824643Y17507875D02*
X30853214Y17431684D01*
X30853214Y17431684D02*
X30881785Y17279303D01*
X30881785Y17279303D02*
X30881785Y17088827D01*
X30881785Y17088827D02*
X30853214Y16936446D01*
X30853214Y16936446D02*
X30824643Y16860256D01*
X30824643Y16860256D02*
X30796071Y16822160D01*
X30796071Y16822160D02*
X30738928Y16784065D01*
X30738928Y16784065D02*
X30681785Y16784065D01*
X30681785Y16784065D02*
X30624643Y16822160D01*
X30624643Y16822160D02*
X30596071Y16860256D01*
X30596071Y16860256D02*
X30567500Y16936446D01*
X30567500Y16936446D02*
X30538928Y17088827D01*
X30538928Y17088827D02*
X30538928Y17279303D01*
X30538928Y17279303D02*
X30567500Y17431684D01*
X30567500Y17431684D02*
X30596071Y17507875D01*
X30596071Y17507875D02*
X30624643Y17545970D01*
X30624643Y17545970D02*
X30681785Y17584065D01*
X31138929Y16860256D02*
X31167500Y16822160D01*
X31167500Y16822160D02*
X31138929Y16784065D01*
X31138929Y16784065D02*
X31110357Y16822160D01*
X31110357Y16822160D02*
X31138929Y16860256D01*
X31138929Y16860256D02*
X31138929Y16784065D01*
X31738928Y16784065D02*
X31396071Y16784065D01*
X31567500Y16784065D02*
X31567500Y17584065D01*
X31567500Y17584065D02*
X31510357Y17469780D01*
X31510357Y17469780D02*
X31453214Y17393589D01*
X31453214Y17393589D02*
X31396071Y17355494D01*
X32253215Y17317399D02*
X32253215Y16784065D01*
X31996072Y17317399D02*
X31996072Y16898351D01*
X31996072Y16898351D02*
X32024643Y16822160D01*
X32024643Y16822160D02*
X32081786Y16784065D01*
X32081786Y16784065D02*
X32167500Y16784065D01*
X32167500Y16784065D02*
X32224643Y16822160D01*
X32224643Y16822160D02*
X32253215Y16860256D01*
X32738929Y17203113D02*
X32538929Y17203113D01*
X32538929Y16784065D02*
X32538929Y17584065D01*
X32538929Y17584065D02*
X32824643Y17584065D01*
X31567500Y18710256D02*
X31538928Y18672160D01*
X31538928Y18672160D02*
X31453214Y18634065D01*
X31453214Y18634065D02*
X31396071Y18634065D01*
X31396071Y18634065D02*
X31310357Y18672160D01*
X31310357Y18672160D02*
X31253214Y18748351D01*
X31253214Y18748351D02*
X31224643Y18824541D01*
X31224643Y18824541D02*
X31196071Y18976922D01*
X31196071Y18976922D02*
X31196071Y19091208D01*
X31196071Y19091208D02*
X31224643Y19243589D01*
X31224643Y19243589D02*
X31253214Y19319780D01*
X31253214Y19319780D02*
X31310357Y19395970D01*
X31310357Y19395970D02*
X31396071Y19434065D01*
X31396071Y19434065D02*
X31453214Y19434065D01*
X31453214Y19434065D02*
X31538928Y19395970D01*
X31538928Y19395970D02*
X31567500Y19357875D01*
X31767500Y19434065D02*
X32138928Y19434065D01*
X32138928Y19434065D02*
X31938928Y19129303D01*
X31938928Y19129303D02*
X32024643Y19129303D01*
X32024643Y19129303D02*
X32081786Y19091208D01*
X32081786Y19091208D02*
X32110357Y19053113D01*
X32110357Y19053113D02*
X32138928Y18976922D01*
X32138928Y18976922D02*
X32138928Y18786446D01*
X32138928Y18786446D02*
X32110357Y18710256D01*
X32110357Y18710256D02*
X32081786Y18672160D01*
X32081786Y18672160D02*
X32024643Y18634065D01*
X32024643Y18634065D02*
X31853214Y18634065D01*
X31853214Y18634065D02*
X31796071Y18672160D01*
X31796071Y18672160D02*
X31767500Y18710256D01*
X14695935Y22321429D02*
X14695935Y21978572D01*
X14695935Y22150001D02*
X13895935Y22150001D01*
X13895935Y22150001D02*
X14010220Y22092858D01*
X14010220Y22092858D02*
X14086411Y22035715D01*
X14086411Y22035715D02*
X14124506Y21978572D01*
X14695935Y22578573D02*
X13895935Y22578573D01*
X14695935Y22921430D02*
X14238792Y22664287D01*
X13895935Y22921430D02*
X14353078Y22578573D01*
X12865935Y22350001D02*
X12484982Y22150001D01*
X12865935Y22007144D02*
X12065935Y22007144D01*
X12065935Y22007144D02*
X12065935Y22235715D01*
X12065935Y22235715D02*
X12104030Y22292858D01*
X12104030Y22292858D02*
X12142125Y22321429D01*
X12142125Y22321429D02*
X12218316Y22350001D01*
X12218316Y22350001D02*
X12332601Y22350001D01*
X12332601Y22350001D02*
X12408792Y22321429D01*
X12408792Y22321429D02*
X12446887Y22292858D01*
X12446887Y22292858D02*
X12484982Y22235715D01*
X12484982Y22235715D02*
X12484982Y22007144D01*
X12065935Y22550001D02*
X12065935Y22950001D01*
X12065935Y22950001D02*
X12865935Y22692858D01*
X38085713Y35944065D02*
X37742856Y35944065D01*
X37914285Y35944065D02*
X37914285Y36744065D01*
X37914285Y36744065D02*
X37857142Y36629780D01*
X37857142Y36629780D02*
X37799999Y36553589D01*
X37799999Y36553589D02*
X37742856Y36515494D01*
X38457142Y36744065D02*
X38514285Y36744065D01*
X38514285Y36744065D02*
X38571428Y36705970D01*
X38571428Y36705970D02*
X38600000Y36667875D01*
X38600000Y36667875D02*
X38628571Y36591684D01*
X38628571Y36591684D02*
X38657142Y36439303D01*
X38657142Y36439303D02*
X38657142Y36248827D01*
X38657142Y36248827D02*
X38628571Y36096446D01*
X38628571Y36096446D02*
X38600000Y36020256D01*
X38600000Y36020256D02*
X38571428Y35982160D01*
X38571428Y35982160D02*
X38514285Y35944065D01*
X38514285Y35944065D02*
X38457142Y35944065D01*
X38457142Y35944065D02*
X38400000Y35982160D01*
X38400000Y35982160D02*
X38371428Y36020256D01*
X38371428Y36020256D02*
X38342857Y36096446D01*
X38342857Y36096446D02*
X38314285Y36248827D01*
X38314285Y36248827D02*
X38314285Y36439303D01*
X38314285Y36439303D02*
X38342857Y36591684D01*
X38342857Y36591684D02*
X38371428Y36667875D01*
X38371428Y36667875D02*
X38400000Y36705970D01*
X38400000Y36705970D02*
X38457142Y36744065D01*
X38914286Y35944065D02*
X38914286Y36744065D01*
X39257143Y35944065D02*
X39000000Y36401208D01*
X39257143Y36744065D02*
X38914286Y36286922D01*
X38400000Y37774065D02*
X38200000Y38155018D01*
X38057143Y37774065D02*
X38057143Y38574065D01*
X38057143Y38574065D02*
X38285714Y38574065D01*
X38285714Y38574065D02*
X38342857Y38535970D01*
X38342857Y38535970D02*
X38371428Y38497875D01*
X38371428Y38497875D02*
X38400000Y38421684D01*
X38400000Y38421684D02*
X38400000Y38307399D01*
X38400000Y38307399D02*
X38371428Y38231208D01*
X38371428Y38231208D02*
X38342857Y38193113D01*
X38342857Y38193113D02*
X38285714Y38155018D01*
X38285714Y38155018D02*
X38057143Y38155018D01*
X38600000Y38574065D02*
X38971428Y38574065D01*
X38971428Y38574065D02*
X38771428Y38269303D01*
X38771428Y38269303D02*
X38857143Y38269303D01*
X38857143Y38269303D02*
X38914286Y38231208D01*
X38914286Y38231208D02*
X38942857Y38193113D01*
X38942857Y38193113D02*
X38971428Y38116922D01*
X38971428Y38116922D02*
X38971428Y37926446D01*
X38971428Y37926446D02*
X38942857Y37850256D01*
X38942857Y37850256D02*
X38914286Y37812160D01*
X38914286Y37812160D02*
X38857143Y37774065D01*
X38857143Y37774065D02*
X38685714Y37774065D01*
X38685714Y37774065D02*
X38628571Y37812160D01*
X38628571Y37812160D02*
X38600000Y37850256D01*
X55865935Y5842858D02*
X55065935Y5842858D01*
X55065935Y5842858D02*
X55065935Y5985715D01*
X55065935Y5985715D02*
X55104030Y6071429D01*
X55104030Y6071429D02*
X55180220Y6128572D01*
X55180220Y6128572D02*
X55256411Y6157143D01*
X55256411Y6157143D02*
X55408792Y6185715D01*
X55408792Y6185715D02*
X55523078Y6185715D01*
X55523078Y6185715D02*
X55675459Y6157143D01*
X55675459Y6157143D02*
X55751649Y6128572D01*
X55751649Y6128572D02*
X55827840Y6071429D01*
X55827840Y6071429D02*
X55865935Y5985715D01*
X55865935Y5985715D02*
X55865935Y5842858D01*
X55865935Y8057144D02*
X55065935Y8057144D01*
X55065935Y8057144D02*
X55065935Y8200001D01*
X55065935Y8200001D02*
X55104030Y8285715D01*
X55104030Y8285715D02*
X55180220Y8342858D01*
X55180220Y8342858D02*
X55256411Y8371429D01*
X55256411Y8371429D02*
X55408792Y8400001D01*
X55408792Y8400001D02*
X55523078Y8400001D01*
X55523078Y8400001D02*
X55675459Y8371429D01*
X55675459Y8371429D02*
X55751649Y8342858D01*
X55751649Y8342858D02*
X55827840Y8285715D01*
X55827840Y8285715D02*
X55865935Y8200001D01*
X55865935Y8200001D02*
X55865935Y8057144D01*
X55865935Y8971429D02*
X55865935Y8628572D01*
X55865935Y8800001D02*
X55065935Y8800001D01*
X55065935Y8800001D02*
X55180220Y8742858D01*
X55180220Y8742858D02*
X55256411Y8685715D01*
X55256411Y8685715D02*
X55294506Y8628572D01*
X25614286Y6134065D02*
X25328572Y6134065D01*
X25328572Y6134065D02*
X25328572Y6934065D01*
X25814286Y6553113D02*
X26014286Y6553113D01*
X26100000Y6134065D02*
X25814286Y6134065D01*
X25814286Y6134065D02*
X25814286Y6934065D01*
X25814286Y6934065D02*
X26100000Y6934065D01*
X26357143Y6134065D02*
X26357143Y6934065D01*
X26357143Y6934065D02*
X26500000Y6934065D01*
X26500000Y6934065D02*
X26585714Y6895970D01*
X26585714Y6895970D02*
X26642857Y6819780D01*
X26642857Y6819780D02*
X26671428Y6743589D01*
X26671428Y6743589D02*
X26700000Y6591208D01*
X26700000Y6591208D02*
X26700000Y6476922D01*
X26700000Y6476922D02*
X26671428Y6324541D01*
X26671428Y6324541D02*
X26642857Y6248351D01*
X26642857Y6248351D02*
X26585714Y6172160D01*
X26585714Y6172160D02*
X26500000Y6134065D01*
X26500000Y6134065D02*
X26357143Y6134065D01*
X26057143Y8134065D02*
X26057143Y8934065D01*
X26057143Y8934065D02*
X26200000Y8934065D01*
X26200000Y8934065D02*
X26285714Y8895970D01*
X26285714Y8895970D02*
X26342857Y8819780D01*
X26342857Y8819780D02*
X26371428Y8743589D01*
X26371428Y8743589D02*
X26400000Y8591208D01*
X26400000Y8591208D02*
X26400000Y8476922D01*
X26400000Y8476922D02*
X26371428Y8324541D01*
X26371428Y8324541D02*
X26342857Y8248351D01*
X26342857Y8248351D02*
X26285714Y8172160D01*
X26285714Y8172160D02*
X26200000Y8134065D01*
X26200000Y8134065D02*
X26057143Y8134065D01*
X26914286Y8667399D02*
X26914286Y8134065D01*
X26771428Y8972160D02*
X26628571Y8400732D01*
X26628571Y8400732D02*
X27000000Y8400732D01*
X43528571Y36477399D02*
X43528571Y35944065D01*
X43385713Y36782160D02*
X43242856Y36210732D01*
X43242856Y36210732D02*
X43614285Y36210732D01*
X43785714Y36744065D02*
X44185714Y36744065D01*
X44185714Y36744065D02*
X43928571Y35944065D01*
X44414286Y35944065D02*
X44414286Y36744065D01*
X44757143Y35944065D02*
X44500000Y36401208D01*
X44757143Y36744065D02*
X44414286Y36286922D01*
X43900000Y37774065D02*
X43700000Y38155018D01*
X43557143Y37774065D02*
X43557143Y38574065D01*
X43557143Y38574065D02*
X43785714Y38574065D01*
X43785714Y38574065D02*
X43842857Y38535970D01*
X43842857Y38535970D02*
X43871428Y38497875D01*
X43871428Y38497875D02*
X43900000Y38421684D01*
X43900000Y38421684D02*
X43900000Y38307399D01*
X43900000Y38307399D02*
X43871428Y38231208D01*
X43871428Y38231208D02*
X43842857Y38193113D01*
X43842857Y38193113D02*
X43785714Y38155018D01*
X43785714Y38155018D02*
X43557143Y38155018D01*
X44128571Y38497875D02*
X44157143Y38535970D01*
X44157143Y38535970D02*
X44214286Y38574065D01*
X44214286Y38574065D02*
X44357143Y38574065D01*
X44357143Y38574065D02*
X44414286Y38535970D01*
X44414286Y38535970D02*
X44442857Y38497875D01*
X44442857Y38497875D02*
X44471428Y38421684D01*
X44471428Y38421684D02*
X44471428Y38345494D01*
X44471428Y38345494D02*
X44442857Y38231208D01*
X44442857Y38231208D02*
X44100000Y37774065D01*
X44100000Y37774065D02*
X44471428Y37774065D01*
X36419642Y16634065D02*
X36076785Y16634065D01*
X36248214Y16634065D02*
X36248214Y17434065D01*
X36248214Y17434065D02*
X36191071Y17319780D01*
X36191071Y17319780D02*
X36133928Y17243589D01*
X36133928Y17243589D02*
X36076785Y17205494D01*
X36791071Y17434065D02*
X36848214Y17434065D01*
X36848214Y17434065D02*
X36905357Y17395970D01*
X36905357Y17395970D02*
X36933929Y17357875D01*
X36933929Y17357875D02*
X36962500Y17281684D01*
X36962500Y17281684D02*
X36991071Y17129303D01*
X36991071Y17129303D02*
X36991071Y16938827D01*
X36991071Y16938827D02*
X36962500Y16786446D01*
X36962500Y16786446D02*
X36933929Y16710256D01*
X36933929Y16710256D02*
X36905357Y16672160D01*
X36905357Y16672160D02*
X36848214Y16634065D01*
X36848214Y16634065D02*
X36791071Y16634065D01*
X36791071Y16634065D02*
X36733929Y16672160D01*
X36733929Y16672160D02*
X36705357Y16710256D01*
X36705357Y16710256D02*
X36676786Y16786446D01*
X36676786Y16786446D02*
X36648214Y16938827D01*
X36648214Y16938827D02*
X36648214Y17129303D01*
X36648214Y17129303D02*
X36676786Y17281684D01*
X36676786Y17281684D02*
X36705357Y17357875D01*
X36705357Y17357875D02*
X36733929Y17395970D01*
X36733929Y17395970D02*
X36791071Y17434065D01*
X37505358Y17167399D02*
X37505358Y16634065D01*
X37248215Y17167399D02*
X37248215Y16748351D01*
X37248215Y16748351D02*
X37276786Y16672160D01*
X37276786Y16672160D02*
X37333929Y16634065D01*
X37333929Y16634065D02*
X37419643Y16634065D01*
X37419643Y16634065D02*
X37476786Y16672160D01*
X37476786Y16672160D02*
X37505358Y16710256D01*
X37991072Y17053113D02*
X37791072Y17053113D01*
X37791072Y16634065D02*
X37791072Y17434065D01*
X37791072Y17434065D02*
X38076786Y17434065D01*
X36962500Y18710256D02*
X36933928Y18672160D01*
X36933928Y18672160D02*
X36848214Y18634065D01*
X36848214Y18634065D02*
X36791071Y18634065D01*
X36791071Y18634065D02*
X36705357Y18672160D01*
X36705357Y18672160D02*
X36648214Y18748351D01*
X36648214Y18748351D02*
X36619643Y18824541D01*
X36619643Y18824541D02*
X36591071Y18976922D01*
X36591071Y18976922D02*
X36591071Y19091208D01*
X36591071Y19091208D02*
X36619643Y19243589D01*
X36619643Y19243589D02*
X36648214Y19319780D01*
X36648214Y19319780D02*
X36705357Y19395970D01*
X36705357Y19395970D02*
X36791071Y19434065D01*
X36791071Y19434065D02*
X36848214Y19434065D01*
X36848214Y19434065D02*
X36933928Y19395970D01*
X36933928Y19395970D02*
X36962500Y19357875D01*
X37191071Y19357875D02*
X37219643Y19395970D01*
X37219643Y19395970D02*
X37276786Y19434065D01*
X37276786Y19434065D02*
X37419643Y19434065D01*
X37419643Y19434065D02*
X37476786Y19395970D01*
X37476786Y19395970D02*
X37505357Y19357875D01*
X37505357Y19357875D02*
X37533928Y19281684D01*
X37533928Y19281684D02*
X37533928Y19205494D01*
X37533928Y19205494D02*
X37505357Y19091208D01*
X37505357Y19091208D02*
X37162500Y18634065D01*
X37162500Y18634065D02*
X37533928Y18634065D01*
X18671428Y18434065D02*
X18728571Y18434065D01*
X18728571Y18434065D02*
X18785714Y18395970D01*
X18785714Y18395970D02*
X18814286Y18357875D01*
X18814286Y18357875D02*
X18842857Y18281684D01*
X18842857Y18281684D02*
X18871428Y18129303D01*
X18871428Y18129303D02*
X18871428Y17938827D01*
X18871428Y17938827D02*
X18842857Y17786446D01*
X18842857Y17786446D02*
X18814286Y17710256D01*
X18814286Y17710256D02*
X18785714Y17672160D01*
X18785714Y17672160D02*
X18728571Y17634065D01*
X18728571Y17634065D02*
X18671428Y17634065D01*
X18671428Y17634065D02*
X18614286Y17672160D01*
X18614286Y17672160D02*
X18585714Y17710256D01*
X18585714Y17710256D02*
X18557143Y17786446D01*
X18557143Y17786446D02*
X18528571Y17938827D01*
X18528571Y17938827D02*
X18528571Y18129303D01*
X18528571Y18129303D02*
X18557143Y18281684D01*
X18557143Y18281684D02*
X18585714Y18357875D01*
X18585714Y18357875D02*
X18614286Y18395970D01*
X18614286Y18395970D02*
X18671428Y18434065D01*
X19471429Y17634065D02*
X19271429Y18015018D01*
X19128572Y17634065D02*
X19128572Y18434065D01*
X19128572Y18434065D02*
X19357143Y18434065D01*
X19357143Y18434065D02*
X19414286Y18395970D01*
X19414286Y18395970D02*
X19442857Y18357875D01*
X19442857Y18357875D02*
X19471429Y18281684D01*
X19471429Y18281684D02*
X19471429Y18167399D01*
X19471429Y18167399D02*
X19442857Y18091208D01*
X19442857Y18091208D02*
X19414286Y18053113D01*
X19414286Y18053113D02*
X19357143Y18015018D01*
X19357143Y18015018D02*
X19128572Y18015018D01*
X18900000Y19134065D02*
X18700000Y19515018D01*
X18557143Y19134065D02*
X18557143Y19934065D01*
X18557143Y19934065D02*
X18785714Y19934065D01*
X18785714Y19934065D02*
X18842857Y19895970D01*
X18842857Y19895970D02*
X18871428Y19857875D01*
X18871428Y19857875D02*
X18900000Y19781684D01*
X18900000Y19781684D02*
X18900000Y19667399D01*
X18900000Y19667399D02*
X18871428Y19591208D01*
X18871428Y19591208D02*
X18842857Y19553113D01*
X18842857Y19553113D02*
X18785714Y19515018D01*
X18785714Y19515018D02*
X18557143Y19515018D01*
X19185714Y19134065D02*
X19300000Y19134065D01*
X19300000Y19134065D02*
X19357143Y19172160D01*
X19357143Y19172160D02*
X19385714Y19210256D01*
X19385714Y19210256D02*
X19442857Y19324541D01*
X19442857Y19324541D02*
X19471428Y19476922D01*
X19471428Y19476922D02*
X19471428Y19781684D01*
X19471428Y19781684D02*
X19442857Y19857875D01*
X19442857Y19857875D02*
X19414286Y19895970D01*
X19414286Y19895970D02*
X19357143Y19934065D01*
X19357143Y19934065D02*
X19242857Y19934065D01*
X19242857Y19934065D02*
X19185714Y19895970D01*
X19185714Y19895970D02*
X19157143Y19857875D01*
X19157143Y19857875D02*
X19128571Y19781684D01*
X19128571Y19781684D02*
X19128571Y19591208D01*
X19128571Y19591208D02*
X19157143Y19515018D01*
X19157143Y19515018D02*
X19185714Y19476922D01*
X19185714Y19476922D02*
X19242857Y19438827D01*
X19242857Y19438827D02*
X19357143Y19438827D01*
X19357143Y19438827D02*
X19414286Y19476922D01*
X19414286Y19476922D02*
X19442857Y19515018D01*
X19442857Y19515018D02*
X19471428Y19591208D01*
X26371428Y2274065D02*
X26028571Y2274065D01*
X26200000Y2274065D02*
X26200000Y3074065D01*
X26200000Y3074065D02*
X26142857Y2959780D01*
X26142857Y2959780D02*
X26085714Y2883589D01*
X26085714Y2883589D02*
X26028571Y2845494D01*
X26628572Y2274065D02*
X26628572Y3074065D01*
X26971429Y2274065D02*
X26714286Y2731208D01*
X26971429Y3074065D02*
X26628572Y2616922D01*
X26114285Y4134065D02*
X25914285Y4515018D01*
X25771428Y4134065D02*
X25771428Y4934065D01*
X25771428Y4934065D02*
X25999999Y4934065D01*
X25999999Y4934065D02*
X26057142Y4895970D01*
X26057142Y4895970D02*
X26085713Y4857875D01*
X26085713Y4857875D02*
X26114285Y4781684D01*
X26114285Y4781684D02*
X26114285Y4667399D01*
X26114285Y4667399D02*
X26085713Y4591208D01*
X26085713Y4591208D02*
X26057142Y4553113D01*
X26057142Y4553113D02*
X25999999Y4515018D01*
X25999999Y4515018D02*
X25771428Y4515018D01*
X26685713Y4134065D02*
X26342856Y4134065D01*
X26514285Y4134065D02*
X26514285Y4934065D01*
X26514285Y4934065D02*
X26457142Y4819780D01*
X26457142Y4819780D02*
X26399999Y4743589D01*
X26399999Y4743589D02*
X26342856Y4705494D01*
X26885714Y4934065D02*
X27257142Y4934065D01*
X27257142Y4934065D02*
X27057142Y4629303D01*
X27057142Y4629303D02*
X27142857Y4629303D01*
X27142857Y4629303D02*
X27200000Y4591208D01*
X27200000Y4591208D02*
X27228571Y4553113D01*
X27228571Y4553113D02*
X27257142Y4476922D01*
X27257142Y4476922D02*
X27257142Y4286446D01*
X27257142Y4286446D02*
X27228571Y4210256D01*
X27228571Y4210256D02*
X27200000Y4172160D01*
X27200000Y4172160D02*
X27142857Y4134065D01*
X27142857Y4134065D02*
X26971428Y4134065D01*
X26971428Y4134065D02*
X26914285Y4172160D01*
X26914285Y4172160D02*
X26885714Y4210256D01*
%TO.C,R5*%
D11*
X5239564Y18910000D02*
X3785436Y18910000D01*
X5239564Y17090000D02*
X3785436Y17090000D01*
%TO.C,D3*%
X49700000Y2765000D02*
X52160000Y2765000D01*
X52160000Y4235000D02*
X49700000Y4235000D01*
X52160000Y2765000D02*
X52160000Y4235000D01*
%TO.C,R11*%
X48715000Y8727064D02*
X48715000Y7272936D01*
X50535000Y8727064D02*
X50535000Y7272936D01*
%TO.C,R12*%
X10227064Y12910000D02*
X8772936Y12910000D01*
X10227064Y11090000D02*
X8772936Y11090000D01*
%TO.C,C1*%
X8590000Y15288748D02*
X8590000Y16711252D01*
X10410000Y15288748D02*
X10410000Y16711252D01*
%TO.C,D5*%
X31400000Y7365000D02*
X35460000Y7365000D01*
X35460000Y9635000D02*
X31400000Y9635000D01*
X35460000Y7365000D02*
X35460000Y9635000D01*
%TO.C,R4*%
X3785436Y22410000D02*
X5239564Y22410000D01*
X3785436Y20590000D02*
X5239564Y20590000D01*
%TO.C,R6*%
X51590000Y8727064D02*
X51590000Y7272936D01*
X53410000Y8727064D02*
X53410000Y7272936D01*
%TO.C,R10*%
X32272936Y12910000D02*
X33727064Y12910000D01*
X32272936Y11090000D02*
X33727064Y11090000D01*
%TO.C,D6*%
X31350000Y3365000D02*
X35410000Y3365000D01*
X35410000Y5635000D02*
X31350000Y5635000D01*
X35410000Y3365000D02*
X35410000Y5635000D01*
%TO.C,R8*%
X27227064Y12910000D02*
X25772936Y12910000D01*
X27227064Y11090000D02*
X25772936Y11090000D01*
%TO.C,U2*%
X4500000Y24540000D02*
X5880000Y24540000D01*
X5880000Y25920000D02*
X5880000Y24540000D01*
X3000000Y35730000D02*
X41000000Y35730000D01*
X41000000Y23730000D01*
X3000000Y23730000D01*
X3000000Y35730000D01*
%TO.C,D2*%
X2052500Y16135000D02*
X2052500Y13865000D01*
X2052500Y13865000D02*
X6112500Y13865000D01*
X6112500Y16135000D02*
X2052500Y16135000D01*
%TO.C,R1*%
X19590000Y16227064D02*
X19590000Y14772936D01*
X21410000Y16227064D02*
X21410000Y14772936D01*
%TO.C,C3*%
X30956248Y19910000D02*
X32378752Y19910000D01*
X30956248Y18090000D02*
X32378752Y18090000D01*
%TO.C,R7*%
X11590000Y21722936D02*
X11590000Y23177064D01*
X13410000Y21722936D02*
X13410000Y23177064D01*
%TO.C,R3*%
X37772936Y39050000D02*
X39227064Y39050000D01*
X37772936Y37230000D02*
X39227064Y37230000D01*
%TO.C,D1*%
X54765000Y9300000D02*
X54765000Y6840000D01*
X54765000Y6840000D02*
X56235000Y6840000D01*
X56235000Y6840000D02*
X56235000Y9300000D01*
%TO.C,D4*%
X24040000Y9635000D02*
X24040000Y7365000D01*
X24040000Y7365000D02*
X28100000Y7365000D01*
X28100000Y9635000D02*
X24040000Y9635000D01*
%TO.C,R2*%
X43272936Y39050000D02*
X44727064Y39050000D01*
X43272936Y37230000D02*
X44727064Y37230000D01*
%TO.C,C2*%
X37773752Y19910000D02*
X36351248Y19910000D01*
X37773752Y18090000D02*
X36351248Y18090000D01*
%TO.C,R9*%
X19727064Y20410000D02*
X18272936Y20410000D01*
X19727064Y18590000D02*
X18272936Y18590000D01*
%TO.C,R13*%
X27227064Y5410000D02*
X25772936Y5410000D01*
X27227064Y3590000D02*
X25772936Y3590000D01*
%TD*%
D12*
X-4466Y36600000D02*
G75*
G02*
X4995534Y41600066I5000066J0D01*
G01*
X0Y36600000D02*
X0Y5000000D01*
X4995534Y-4466D02*
G75*
G02*
X-4466Y4995534I-34J4999966D01*
G01*
X5000000Y0D02*
X54960000Y0D01*
D13*
X22910000Y41600000D02*
X22910000Y41600000D01*
D12*
X23480000Y41600000D02*
X5000000Y41600000D01*
D13*
X23480000Y41600000D02*
X23505714Y41601376D01*
X23531250Y41602765D01*
X23553302Y41603987D01*
X23575221Y41605223D01*
X23594994Y41606359D01*
X23614660Y41607510D01*
X23632808Y41608593D01*
X23650865Y41609693D01*
X23667766Y41610742D01*
X23684588Y41611807D01*
X23700487Y41612835D01*
X23716315Y41613879D01*
X23731382Y41614893D01*
X23746385Y41615924D01*
X23760743Y41616931D01*
X23775044Y41617954D01*
X23788789Y41618958D01*
X23802482Y41619979D01*
X23815689Y41620985D01*
X23828847Y41622007D01*
X23841575Y41623016D01*
X23854258Y41624041D01*
X23866556Y41625057D01*
X23878812Y41626089D01*
X23890722Y41627112D01*
X23902592Y41628153D01*
X23914148Y41629186D01*
X23925665Y41630236D01*
X23936896Y41631281D01*
X23948091Y41632342D01*
X23959023Y41633399D01*
X23969921Y41634473D01*
X23980576Y41635543D01*
X23991198Y41636631D01*
X24001596Y41637716D01*
X24011963Y41638818D01*
X24022120Y41639918D01*
X24032248Y41641035D01*
X24042181Y41642151D01*
X24052085Y41643284D01*
X24061807Y41644417D01*
X24071502Y41645567D01*
X24081026Y41646716D01*
X24090524Y41647883D01*
X24099860Y41649051D01*
X24109172Y41650236D01*
X24118332Y41651422D01*
X24127468Y41652625D01*
X24136460Y41653829D01*
X24145429Y41655051D01*
X24154263Y41656275D01*
X24163074Y41657516D01*
X24171756Y41658759D01*
X24180417Y41660020D01*
X24188956Y41661282D01*
X24197474Y41662563D01*
X24205876Y41663846D01*
X24214257Y41665147D01*
X24222528Y41666450D01*
X24230780Y41667772D01*
X24238926Y41669096D01*
X24247053Y41670438D01*
X24255079Y41671784D01*
X24263088Y41673147D01*
X24270999Y41674514D01*
X24278894Y41675898D01*
X24286696Y41677287D01*
X24294481Y41678693D01*
X24302178Y41680104D01*
X24309858Y41681532D01*
X24317454Y41682965D01*
X24325034Y41684415D01*
X24332532Y41685870D01*
X24340015Y41687343D01*
X24347420Y41688821D01*
X24354810Y41690316D01*
X24362125Y41691817D01*
X24369425Y41693335D01*
X24376653Y41694859D01*
X24383867Y41696400D01*
X24391012Y41697947D01*
X24398143Y41699512D01*
X24405207Y41701082D01*
X24412257Y41702670D01*
X24419244Y41704265D01*
X24426217Y41705877D01*
X24433129Y41707495D01*
X24440027Y41709131D01*
X24446866Y41710773D01*
X24453693Y41712433D01*
X24460462Y41714100D01*
X24467219Y41715784D01*
X24473920Y41717475D01*
X24480610Y41719184D01*
X24487246Y41720900D01*
X24493870Y41722634D01*
X24500443Y41724375D01*
X24507004Y41726134D01*
X24513516Y41727900D01*
X24520016Y41729684D01*
X24526469Y41731476D01*
X24532910Y41733285D01*
X24539305Y41735103D01*
X24545690Y41736938D01*
X24552029Y41738781D01*
X24558359Y41740642D01*
X24564644Y41742511D01*
X24570920Y41744398D01*
X24577154Y41746294D01*
X24583378Y41748207D01*
X24589561Y41750129D01*
X24595735Y41752069D01*
X24601869Y41754017D01*
X24607994Y41755984D01*
X24614081Y41757960D01*
X24620159Y41759954D01*
X24626200Y41761956D01*
X24632232Y41763977D01*
X24638229Y41766007D01*
X24644217Y41768056D01*
X24650170Y41770114D01*
X24656115Y41772190D01*
X24662027Y41774276D01*
X24667930Y41776380D01*
X24673802Y41778494D01*
X24679665Y41780626D01*
X24685496Y41782768D01*
X24691320Y41784929D01*
X24697114Y41787100D01*
X24702900Y41789289D01*
X24708657Y41791489D01*
X24714406Y41793708D01*
X24720127Y41795937D01*
X24725841Y41798184D01*
X24731527Y41800443D01*
X24737206Y41802720D01*
X24742859Y41805008D01*
X24748504Y41807315D01*
X24754124Y41809633D01*
X24759737Y41811970D01*
X24765326Y41814319D01*
X24770908Y41816686D01*
X24776466Y41819065D01*
X24782017Y41821463D01*
X24787545Y41823873D01*
X24793067Y41826302D01*
X24798567Y41828743D01*
X24804060Y41831204D01*
X24809532Y41833676D01*
X24814997Y41836168D01*
X24820442Y41838672D01*
X24825881Y41841196D01*
X24831300Y41843732D01*
X24836713Y41846288D01*
X24842107Y41848857D01*
X24847495Y41851445D01*
X24852864Y41854047D01*
X24858228Y41856668D01*
X24863574Y41859303D01*
X24868914Y41861957D01*
X24874237Y41864626D01*
X24879555Y41867314D01*
X24884856Y41870016D01*
X24890152Y41872737D01*
X24895432Y41875474D01*
X24900707Y41878230D01*
X24905966Y41881000D01*
X24911221Y41883791D01*
X24916461Y41886596D01*
X24921696Y41889422D01*
X24926917Y41892263D01*
X24932132Y41895124D01*
X24937335Y41898000D01*
X24942533Y41900897D01*
X24947718Y41903809D01*
X24952898Y41906742D01*
X24958066Y41909691D01*
X24963230Y41912661D01*
X24968382Y41915646D01*
X24973529Y41918653D01*
X24978665Y41921676D01*
X24983797Y41924719D01*
X24988918Y41927780D01*
X24994035Y41930862D01*
X24999142Y41933961D01*
X25004245Y41937080D01*
X25009338Y41940218D01*
X25014427Y41943376D01*
X25019507Y41946552D01*
X25024583Y41949750D01*
X25029651Y41952965D01*
X25034715Y41956202D01*
X25039771Y41959458D01*
X25044823Y41962735D01*
X25049867Y41966031D01*
X25054908Y41969349D01*
X25059941Y41972686D01*
X25064971Y41976044D01*
X25069995Y41979422D01*
X25075015Y41982822D01*
X25080029Y41986242D01*
X25085039Y41989684D01*
X25090044Y41993147D01*
X25095046Y41996631D01*
X25100042Y42000136D01*
X25105035Y42003663D01*
X25110023Y42007212D01*
X25115009Y42010783D01*
X25119990Y42014375D01*
X25124967Y42017990D01*
X25129941Y42021627D01*
X25134913Y42025287D01*
X25139880Y42028968D01*
X25144845Y42032673D01*
X25149807Y42036400D01*
X25154766Y42040151D01*
X25159722Y42043924D01*
X25164676Y42047721D01*
X25169627Y42051541D01*
X25174576Y42055384D01*
X25179524Y42059251D01*
X25184468Y42063142D01*
X25189412Y42067057D01*
X25194352Y42070996D01*
X25199292Y42074960D01*
X25204230Y42078947D01*
X25209167Y42082960D01*
X25214102Y42086997D01*
X25219037Y42091059D01*
X25223969Y42095146D01*
X25233833Y42103396D01*
X25243694Y42111748D01*
X25253553Y42120204D01*
X25263411Y42128764D01*
X25273269Y42137431D01*
X25283128Y42146205D01*
X25292989Y42155088D01*
X25302852Y42164082D01*
X25312720Y42173187D01*
X25322592Y42182406D01*
X25332470Y42191740D01*
X25342354Y42201190D01*
X25352246Y42210758D01*
X25362146Y42220446D01*
X25372055Y42230255D01*
X25381974Y42240187D01*
X25391905Y42250243D01*
X25401847Y42260425D01*
X25411802Y42270735D01*
X25421770Y42281175D01*
X25431754Y42291746D01*
X25441752Y42302450D01*
X25451767Y42313289D01*
X25461800Y42324265D01*
X25471851Y42335380D01*
X25481920Y42346635D01*
X25492010Y42358033D01*
X25502121Y42369576D01*
X25512254Y42381265D01*
X25522409Y42393103D01*
X25532588Y42405092D01*
X25542792Y42417233D01*
X25553021Y42429530D01*
X25563277Y42441984D01*
X25573560Y42454597D01*
X25583872Y42467372D01*
X25594213Y42480311D01*
X25604584Y42493416D01*
X25614987Y42506690D01*
X25625422Y42520135D01*
X25635890Y42533754D01*
X25646392Y42547549D01*
X25656930Y42561523D01*
X25667504Y42575677D01*
X25678115Y42590016D01*
X25688765Y42604541D01*
X25699454Y42619256D01*
X25710183Y42634162D01*
X25720954Y42649264D01*
X25731768Y42664563D01*
X25742625Y42680063D01*
X25753527Y42695766D01*
X25764475Y42711676D01*
X25775469Y42727796D01*
X25786512Y42744129D01*
X25797605Y42760678D01*
X25808747Y42777446D01*
X25819942Y42794437D01*
X25831189Y42811653D01*
X25842490Y42829099D01*
X25853847Y42846778D01*
X25865261Y42864694D01*
X25876732Y42882849D01*
X25888262Y42901248D01*
X25899853Y42919895D01*
X25911506Y42938793D01*
X25923222Y42957946D01*
X25935002Y42977359D01*
X25946849Y42997034D01*
X25958763Y43016977D01*
X25970745Y43037192D01*
X25982799Y43057683D01*
X25990000Y43070000D01*
X25990000Y43070000D02*
X25995344Y43079798D01*
X26000651Y43089570D01*
X26005930Y43099331D01*
X26011171Y43109066D01*
X26016385Y43118790D01*
X26021562Y43128488D01*
X26026710Y43138176D01*
X26031823Y43147839D01*
X26036908Y43157491D01*
X26041956Y43167118D01*
X26046978Y43176736D01*
X26051963Y43186329D01*
X26061845Y43205471D01*
X26071603Y43224546D01*
X26081238Y43243556D01*
X26090751Y43262503D01*
X26100144Y43281386D01*
X26109417Y43300209D01*
X26118573Y43318972D01*
X26127611Y43337677D01*
X26136533Y43356325D01*
X26145341Y43374918D01*
X26154036Y43393458D01*
X26162618Y43411945D01*
X26171089Y43430383D01*
X26179451Y43448772D01*
X26187703Y43467114D01*
X26195848Y43485411D01*
X26203887Y43503665D01*
X26211820Y43521877D01*
X26219649Y43540050D01*
X26227376Y43558185D01*
X26235000Y43576284D01*
X26242525Y43594350D01*
X26249949Y43612384D01*
X26257276Y43630389D01*
X26264506Y43648367D01*
X26271640Y43666320D01*
X26278680Y43684250D01*
X26285626Y43702161D01*
X26292481Y43720054D01*
X26299244Y43737933D01*
X26305918Y43755800D01*
X26312504Y43773658D01*
X26319003Y43791510D01*
X26325416Y43809359D01*
X26331745Y43827208D01*
X26337991Y43845062D01*
X26344155Y43862922D01*
X26350239Y43880794D01*
X26356245Y43898682D01*
X26362173Y43916589D01*
X26368025Y43934519D01*
X26373803Y43952478D01*
X26379508Y43970471D01*
X26385143Y43988503D01*
X26390708Y44006579D01*
X26396206Y44024706D01*
X26401638Y44042890D01*
X26407006Y44061137D01*
X26412313Y44079456D01*
X26417560Y44097855D01*
X26422749Y44116342D01*
X26427884Y44134927D01*
X26432967Y44153620D01*
X26438000Y44172432D01*
X26442986Y44191377D01*
X26447929Y44210467D01*
X26452832Y44229720D01*
X26457698Y44249150D01*
X26462533Y44268780D01*
X26467341Y44288629D01*
X26472127Y44308723D01*
X26476897Y44329092D01*
X26481658Y44349767D01*
X26486417Y44370790D01*
X26491186Y44392206D01*
X26495973Y44414071D01*
X26500794Y44436453D01*
X26505664Y44459439D01*
X26510605Y44483135D01*
X26515645Y44507685D01*
X26520819Y44533280D01*
X26526182Y44560194D01*
X26531810Y44588836D01*
X26537833Y44619881D01*
X26544491Y44654585D01*
X26552349Y44695920D01*
X26558893Y44730508D01*
X26568717Y44782383D01*
X26573619Y44808118D01*
X26578533Y44833727D01*
X26583471Y44859218D01*
X26588445Y44884595D01*
X26593470Y44909867D01*
X26596004Y44922465D01*
X26598556Y44935039D01*
X26601127Y44947590D01*
X26603718Y44960119D01*
X26606331Y44972626D01*
X26608968Y44985112D01*
X26611631Y44997579D01*
X26614320Y45010026D01*
X26617037Y45022455D01*
X26619785Y45034867D01*
X26622564Y45047262D01*
X26625377Y45059642D01*
X26628224Y45072006D01*
X26631108Y45084356D01*
X26634031Y45096693D01*
X26636993Y45109018D01*
X26639996Y45121331D01*
X26643042Y45133633D01*
X26646133Y45145925D01*
X26649270Y45158209D01*
X26652455Y45170483D01*
X26655689Y45182751D01*
X26658974Y45195011D01*
X26662312Y45207266D01*
X26665704Y45219516D01*
X26669152Y45231761D01*
X26672657Y45244003D01*
X26676221Y45256243D01*
X26679846Y45268481D01*
X26683533Y45280718D01*
X26687284Y45292955D01*
X26691100Y45305192D01*
X26694984Y45317432D01*
X26698936Y45329674D01*
X26702958Y45341918D01*
X26707053Y45354168D01*
X26711221Y45366421D01*
X26715464Y45378681D01*
X26719783Y45390947D01*
X26724181Y45403221D01*
X26728659Y45415503D01*
X26733219Y45427793D01*
X26737861Y45440094D01*
X26742589Y45452405D01*
X26747402Y45464728D01*
X26752304Y45477063D01*
X26757295Y45489412D01*
X26762378Y45501774D01*
X26764954Y45507961D01*
X26767553Y45514151D01*
X26770176Y45520345D01*
X26772823Y45526544D01*
X26775493Y45532746D01*
X26778188Y45538953D01*
X26780908Y45545164D01*
X26783652Y45551379D01*
X26786420Y45557599D01*
X26789214Y45563824D01*
X26792033Y45570053D01*
X26794877Y45576288D01*
X26797747Y45582527D01*
X26800643Y45588771D01*
X26803565Y45595020D01*
X26806513Y45601275D01*
X26809487Y45607535D01*
X26812488Y45613800D01*
X26815516Y45620071D01*
X26818571Y45626348D01*
X26821653Y45632630D01*
X26824763Y45638918D01*
X26827900Y45645212D01*
X26831065Y45651513D01*
X26834258Y45657819D01*
X26837479Y45664132D01*
X26840729Y45670451D01*
X26844007Y45676777D01*
X26847314Y45683109D01*
X26850650Y45689448D01*
X26854015Y45695794D01*
X26857410Y45702146D01*
X26860834Y45708506D01*
X26864289Y45714873D01*
X26867773Y45721247D01*
X26871287Y45727628D01*
X26874832Y45734017D01*
X26878408Y45740413D01*
X26882014Y45746817D01*
X26885652Y45753228D01*
X26889320Y45759648D01*
X26893020Y45766075D01*
X26896752Y45772510D01*
X26900515Y45778954D01*
X26904311Y45785406D01*
X26908139Y45791866D01*
X26911999Y45798334D01*
X26915892Y45804811D01*
X26919818Y45811297D01*
X26923777Y45817792D01*
X26927769Y45824295D01*
X26931794Y45830807D01*
X26935853Y45837329D01*
X26939946Y45843860D01*
X26944073Y45850399D01*
X26948235Y45856949D01*
X26952430Y45863507D01*
X26956661Y45870076D01*
X26960926Y45876654D01*
X26965226Y45883242D01*
X26969562Y45889839D01*
X26973933Y45896447D01*
X26978340Y45903065D01*
X26982782Y45909693D01*
X26987261Y45916331D01*
X26991776Y45922980D01*
X26996327Y45929640D01*
X27000915Y45936309D01*
X27005540Y45942990D01*
X27010202Y45949682D01*
X27014901Y45956384D01*
X27019638Y45963097D01*
X27024412Y45969822D01*
X27029224Y45976558D01*
X27034074Y45983305D01*
X27038963Y45990063D01*
X27043890Y45996834D01*
X27048856Y46003615D01*
X27053860Y46010409D01*
X27058904Y46017214D01*
X27063987Y46024032D01*
X27069109Y46030861D01*
X27074271Y46037703D01*
X27079473Y46044557D01*
X27084715Y46051423D01*
X27089997Y46058302D01*
X27095320Y46065193D01*
X27100683Y46072097D01*
X27106088Y46079014D01*
X27111533Y46085944D01*
X27117020Y46092886D01*
X27122548Y46099842D01*
X27128118Y46106811D01*
X27133730Y46113793D01*
X27139383Y46120789D01*
X27145079Y46127798D01*
X27150818Y46134821D01*
X27156599Y46141858D01*
X27162424Y46148908D01*
X27168291Y46155972D01*
X27174201Y46163051D01*
X27180156Y46170143D01*
X27186153Y46177250D01*
X27192195Y46184371D01*
X27198281Y46191506D01*
X27204411Y46198656D01*
X27210585Y46205821D01*
X27216805Y46213000D01*
X27223069Y46220195D01*
X27229378Y46227404D01*
X27235733Y46234628D01*
X27242133Y46241868D01*
X27248579Y46249122D01*
X27255070Y46256392D01*
X27261608Y46263678D01*
X27268192Y46270979D01*
X27274823Y46278296D01*
X27281500Y46285628D01*
X27288224Y46292977D01*
X27294996Y46300341D01*
X27301814Y46307722D01*
X27308681Y46315119D01*
X27315595Y46322532D01*
X27322556Y46329961D01*
X27329566Y46337407D01*
X27336625Y46344870D01*
X27343731Y46352349D01*
X27350887Y46359845D01*
X27358091Y46367358D01*
X27365345Y46374888D01*
X27372648Y46382436D01*
X27380000Y46390000D01*
X27380000Y46390000D02*
X27389380Y46397622D01*
X27398711Y46405179D01*
X27407972Y46412653D01*
X27417185Y46420062D01*
X27426328Y46427390D01*
X27435424Y46434654D01*
X27444452Y46441839D01*
X27453433Y46448960D01*
X27462346Y46456003D01*
X27471214Y46462984D01*
X27480016Y46469888D01*
X27488772Y46476730D01*
X27497463Y46483497D01*
X27506110Y46490203D01*
X27514692Y46496835D01*
X27523231Y46503407D01*
X27531707Y46509906D01*
X27540139Y46516346D01*
X27548509Y46522714D01*
X27556837Y46529024D01*
X27565104Y46535263D01*
X27573329Y46541446D01*
X27581494Y46547558D01*
X27589618Y46553615D01*
X27597683Y46559602D01*
X27605707Y46565535D01*
X27613673Y46571400D01*
X27621599Y46577211D01*
X27629468Y46582955D01*
X27637298Y46588646D01*
X27645072Y46594271D01*
X27652807Y46599844D01*
X27660487Y46605352D01*
X27668129Y46610809D01*
X27675717Y46616202D01*
X27683267Y46621544D01*
X27690764Y46626825D01*
X27698224Y46632054D01*
X27705632Y46637223D01*
X27713004Y46642342D01*
X27720325Y46647401D01*
X27727609Y46652411D01*
X27734844Y46657363D01*
X27742043Y46662266D01*
X27749193Y46667111D01*
X27756308Y46671909D01*
X27763375Y46676650D01*
X27770407Y46681344D01*
X27777393Y46685982D01*
X27784344Y46690574D01*
X27791249Y46695112D01*
X27798121Y46699604D01*
X27804948Y46704042D01*
X27811741Y46708435D01*
X27818491Y46712776D01*
X27825207Y46717072D01*
X27831881Y46721317D01*
X27838522Y46725517D01*
X27845122Y46729668D01*
X27851689Y46733774D01*
X27858216Y46737832D01*
X27864710Y46741846D01*
X27871165Y46745813D01*
X27877589Y46749736D01*
X27883974Y46753613D01*
X27890328Y46757447D01*
X27896644Y46761236D01*
X27902930Y46764983D01*
X27909178Y46768684D01*
X27915397Y46772345D01*
X27921579Y46775961D01*
X27927732Y46779536D01*
X27933850Y46783069D01*
X27939939Y46786561D01*
X27945993Y46790011D01*
X27952019Y46793421D01*
X27958012Y46796790D01*
X27963976Y46800120D01*
X27969908Y46803409D01*
X27975812Y46806660D01*
X27981684Y46809870D01*
X27987529Y46813043D01*
X27993344Y46816177D01*
X27999131Y46819273D01*
X28004889Y46822331D01*
X28010620Y46825352D01*
X28016322Y46828336D01*
X28021998Y46831283D01*
X28027647Y46834193D01*
X28033269Y46837068D01*
X28038865Y46839906D01*
X28044435Y46842710D01*
X28049979Y46845477D01*
X28055498Y46848210D01*
X28060993Y46850909D01*
X28066462Y46853573D01*
X28071907Y46856203D01*
X28077328Y46858799D01*
X28082726Y46861362D01*
X28088100Y46863892D01*
X28093452Y46866389D01*
X28098780Y46868853D01*
X28104087Y46871285D01*
X28109371Y46873685D01*
X28114634Y46876054D01*
X28119874Y46878390D01*
X28125096Y46880696D01*
X28130294Y46882971D01*
X28135475Y46885216D01*
X28140633Y46887429D01*
X28145775Y46889613D01*
X28150893Y46891766D01*
X28155997Y46893891D01*
X28161078Y46895985D01*
X28166144Y46898052D01*
X28171189Y46900088D01*
X28176220Y46902098D01*
X28181230Y46904077D01*
X28186227Y46906030D01*
X28191204Y46907953D01*
X28196168Y46909851D01*
X28201112Y46911719D01*
X28206046Y46913562D01*
X28210959Y46915377D01*
X28215864Y46917166D01*
X28220748Y46918927D01*
X28225624Y46920665D01*
X28230480Y46922373D01*
X28240160Y46925716D01*
X28249789Y46928958D01*
X28259373Y46932101D01*
X28268913Y46935145D01*
X28278413Y46938094D01*
X28287877Y46940948D01*
X28297307Y46943709D01*
X28306709Y46946378D01*
X28316084Y46948958D01*
X28325439Y46951450D01*
X28334775Y46953855D01*
X28344099Y46956174D01*
X28353414Y46958410D01*
X28362725Y46960563D01*
X28372037Y46962635D01*
X28381356Y46964627D01*
X28390686Y46966540D01*
X28400035Y46968376D01*
X28409408Y46970136D01*
X28418812Y46971822D01*
X28428255Y46973434D01*
X28437745Y46974973D01*
X28447291Y46976441D01*
X28456903Y46977840D01*
X28466591Y46979169D01*
X28476367Y46980431D01*
X28486246Y46981626D01*
X28496243Y46982756D01*
X28506374Y46983822D01*
X28516661Y46984824D01*
X28527127Y46985765D01*
X28537799Y46986645D01*
X28548711Y46987466D01*
X28559905Y46988230D01*
X28571430Y46988937D01*
X28583352Y46989591D01*
X28595754Y46990192D01*
X28608754Y46990745D01*
X28622515Y46991253D01*
X28637290Y46991721D01*
X28653500Y46992159D01*
X28671966Y46992584D01*
X28694787Y46993040D01*
X28706855Y46993266D01*
X28727970Y46993667D01*
X28749171Y46994110D01*
X28759815Y46994361D01*
X28770491Y46994638D01*
X28781206Y46994947D01*
X28791963Y46995292D01*
X28802765Y46995679D01*
X28813617Y46996113D01*
X28824522Y46996600D01*
X28835486Y46997144D01*
X28846512Y46997751D01*
X28857603Y46998426D01*
X28868765Y46999174D01*
X28880000Y47000000D01*
D12*
X55000000Y47000000D02*
X28880000Y47000000D01*
X55000000Y47000000D02*
G75*
G02*
X60000000Y42000000I0J-5000000D01*
G01*
X59995000Y5035001D02*
G75*
G02*
X54965000Y5000I-5030000J-1D01*
G01*
X60000000Y5040000D02*
X60000000Y42000000D01*
M02*
