M48
; DRILL file KiCad 10.0.5 date 2026-09-20T21:27:28
; FORMAT={-:-/ absolute / metric / decimal}
; #@! TF.CreationDate,2026-09-20T21:27:28-04:00
; #@! TF.GenerationSoftware,Kicad,Pcbnew,10.0.5
; #@! TF.FileFunction,MixedPlating,1,2
FMAT,2
METRIC
; #@! TA.AperFunction,Plated,PTH,ComponentDrill
T1C0.800
%
G90
G05
T1
X4.5Y33.54
X4.5Y31.0
X4.5Y28.46
X4.5Y25.92
X7.19Y7.14
X9.59Y37.75
X9.59Y35.21
X9.59Y32.67
X9.59Y30.13
X9.59Y27.59
X9.59Y25.05
X9.59Y22.51
X9.59Y19.97
X9.73Y9.68
X12.27Y7.14
X16.19Y7.14
X18.73Y9.68
X21.27Y7.14
X25.59Y37.75
X25.59Y35.21
X25.59Y32.67
X25.59Y30.13
X25.59Y27.59
X25.59Y25.05
X25.59Y22.51
X25.59Y19.97
X30.69Y43.0
X30.69Y16.0
X33.23Y43.0
X33.23Y16.0
X37.5Y12.0
X37.5Y6.92
X40.04Y9.46
X42.15Y43.0
X42.15Y16.0
X43.5Y9.04
X43.5Y3.96
X44.69Y43.0
X44.69Y16.0
X46.04Y6.5
X52.19Y41.0
X52.19Y38.5
X52.19Y36.0
X52.19Y33.5
X52.19Y31.0
X52.19Y28.5
X52.19Y26.0
X52.19Y23.5
X52.19Y21.0
X52.19Y18.5
M30
